<svg width="294" height="43" viewBox="0 0 294 43" fill="none" xmlns="http://www.w3.org/2000/svg">
<path d="M36.4633 0C35.9073 0.984209 35.4078 2.00237 34.954 3.04314C30.6415 2.39831 26.2496 2.39831 21.9257 3.04314C21.4833 2.00237 20.9726 0.984209 20.4164 0C16.365 0.690089 12.4156 1.90055 8.67067 3.60878C1.24868 14.5709 -0.759987 25.2502 0.238685 35.7825C4.58524 38.984 9.45374 41.4276 14.6401 42.9886C15.8089 41.4276 16.8417 39.7646 17.7269 38.0337C16.0472 37.4115 14.4244 36.6309 12.8696 35.7259C13.2782 35.4317 13.6754 35.1262 14.0613 34.8321C23.1742 39.1083 33.7283 39.1083 42.8525 34.8321C43.2384 35.149 43.6355 35.4544 44.0441 35.7259C42.4893 36.6421 40.8665 37.4115 39.1756 38.045C40.0608 39.7759 41.0934 41.4388 42.2624 43C47.4487 41.4388 52.3172 39.0065 56.6638 35.805C57.844 23.5872 54.6437 12.9984 48.209 3.62014C44.4754 1.91187 40.5261 0.701392 36.4747 0.0226218L36.4633 0ZM18.9979 29.3002C16.1948 29.3002 13.8682 26.7661 13.8682 23.6325C13.8682 20.4989 16.1039 17.9534 18.9865 17.9534C21.869 17.9534 24.1614 20.5101 24.1161 23.6325C24.0706 26.7548 21.8578 29.3002 18.9979 29.3002ZM37.9046 29.3002C35.0902 29.3002 32.7864 26.7661 32.7864 23.6325C32.7864 20.4989 35.0221 17.9534 37.9046 17.9534C40.787 17.9534 43.0681 20.5101 43.0227 23.6325C42.9774 26.7548 40.7644 29.3002 37.9046 29.3002ZM111.696 7.85103C108.87 6.58407 105.42 5.95059 101.335 5.95059H84.4028V36.2576H100.121C104.546 36.2576 108.258 35.5788 111.253 34.2212C113.988 33.09 116.315 31.1669 117.949 28.7007C119.413 26.3702 120.174 23.6664 120.139 20.9174C120.185 18.1796 119.459 15.4872 118.029 13.1456C116.508 10.7812 114.295 8.92588 111.696 7.83982V7.85103ZM106.294 26.4946C104.819 27.8634 102.708 28.5535 99.9503 28.5535H95.2633V13.6659H100.563C103.219 13.6659 105.216 14.3333 106.544 15.6343C107.894 17.0371 108.609 18.9377 108.519 20.8948C108.621 22.999 107.815 25.0352 106.305 26.506L106.294 26.4946ZM163.911 23.146C165.295 24.3792 165.988 26.1891 165.999 28.5761C166.044 31.1216 164.728 33.5085 162.537 34.8321C160.257 36.3594 156.988 37.1287 152.744 37.1173C150.304 37.1173 147.876 36.8118 145.516 36.2123C143.279 35.6581 141.145 34.7643 139.171 33.5764V26.3928C140.895 27.6372 142.826 28.5535 144.879 29.0966C147.127 29.7754 149.464 30.1373 151.813 30.1487C152.619 30.1938 153.436 30.0469 154.186 29.7414C154.719 29.4699 154.979 29.1191 154.979 28.7685C154.992 28.3613 154.831 27.9766 154.548 27.6825C154.049 27.3091 153.469 27.049 152.858 26.9472L147.648 25.7819C144.664 25.0919 142.542 24.1302 141.293 22.9084C140.022 21.6301 139.341 19.8766 139.432 18.0778C139.409 16.4715 139.999 14.9102 141.077 13.7112C142.36 12.3536 143.983 11.3694 145.765 10.8377C148.068 10.1136 150.475 9.77421 152.892 9.81951C155.15 9.79694 157.396 10.0571 159.576 10.6001C161.346 11.0188 163.036 11.6862 164.614 12.5912V19.3902C163.14 18.5418 161.55 17.8855 159.904 17.4669C158.111 16.9919 156.263 16.743 154.412 16.743C151.689 16.743 150.327 17.2068 150.327 18.1231C150.327 18.5418 150.566 18.9263 150.951 19.096C151.699 19.4128 152.471 19.639 153.266 19.7634L157.612 20.544C160.427 21.0419 162.537 21.9016 163.922 23.146H163.911ZM192.735 28.1463C194.006 27.7843 195.222 27.2638 196.356 26.6078V34.2778C192.997 36.2237 189.161 37.2191 185.281 37.14C182.17 37.2191 179.072 36.597 176.247 35.3073C173.921 34.2438 171.969 32.5243 170.618 30.3635C169.359 28.2367 168.712 25.8158 168.757 23.3496C168.723 20.8834 169.404 18.4625 170.708 16.381C172.104 14.2542 174.102 12.5798 176.439 11.5616C179.288 10.3286 182.363 9.72906 185.473 9.80815C189.819 9.80815 193.416 10.7133 196.288 12.5347V20.4649C195.199 19.7295 194.008 19.1639 192.748 18.7793C191.34 18.3381 189.876 18.1231 188.4 18.1345C185.712 18.1345 183.6 18.6208 182.079 19.6051C179.946 20.793 179.175 23.4854 180.366 25.6235C180.751 26.3135 181.331 26.8905 182.012 27.2978C183.487 28.2934 185.632 28.7911 188.436 28.7911C189.887 28.7911 191.329 28.5875 192.714 28.1688L192.735 28.1463ZM224.887 11.5504C219.178 9.24254 212.789 9.24254 207.081 11.5504C204.755 12.5686 202.78 14.2315 201.372 16.3357C200.044 18.4172 199.352 20.8269 199.398 23.2931C199.363 25.7819 200.056 28.2367 201.372 30.3523C202.768 32.5131 204.766 34.2326 207.115 35.2959C212.789 37.7056 219.201 37.7056 224.875 35.2847C227.213 34.2212 229.199 32.5017 230.584 30.341C231.889 28.2141 232.57 25.7705 232.536 23.2817C232.581 20.8155 231.9 18.3946 230.584 16.3131C229.188 14.2203 227.213 12.5572 224.898 11.5504H224.887ZM220.302 27.6146C219.133 28.7119 217.566 29.2888 215.955 29.187C214.356 29.2663 212.789 28.7007 211.609 27.6146C210.531 26.4946 209.951 24.9901 210.031 23.4289C209.951 21.8902 210.531 20.397 211.609 19.2996C212.789 18.2249 214.356 17.6819 215.955 17.7612C217.556 17.6705 219.122 18.2249 220.302 19.2996C221.392 20.397 221.971 21.8902 221.891 23.4289C221.958 24.9787 221.392 26.4946 220.302 27.6146ZM254.677 10.3512C256.06 10.3172 257.435 10.668 258.625 11.3919V20.759C257.331 19.9898 255.834 19.6164 254.324 19.673C252.01 19.673 250.228 20.3743 248.98 21.7772C247.743 23.1799 247.119 25.352 247.119 28.2934V36.2576H236.474V10.9281H246.891V18.9716C247.47 16.0302 248.401 13.8581 249.695 12.4554C250.966 11.0639 252.77 10.2947 254.654 10.3512H254.677ZM283.342 5.07953V16.3696C281.606 11.9803 278.202 9.78557 273.141 9.78557C270.825 9.75163 268.545 10.3625 266.558 11.5616C264.629 12.7609 263.075 14.469 262.087 16.5054C261.009 18.734 260.476 21.1777 260.556 23.6437C260.51 26.0308 261.009 28.3838 262.007 30.556C262.916 32.5131 264.369 34.1873 266.184 35.3638C268.068 36.5517 270.258 37.1626 272.483 37.1173C274.854 37.1852 277.192 36.6082 279.246 35.4317C281.107 34.2891 282.549 32.5809 283.355 30.556V36.2462H294V5.07953H283.355H283.342ZM281.777 27.4675C280.597 28.5535 279.03 29.1079 277.431 29.0173C275.864 29.0966 274.332 28.531 273.175 27.4675C272.085 26.4154 271.495 24.9448 271.552 23.4289C271.495 21.9242 272.075 20.4761 273.164 19.4242C275.672 17.3878 279.269 17.3878 281.777 19.4242C282.866 20.4422 283.456 21.879 283.412 23.3723C283.469 24.8995 282.877 26.3928 281.777 27.4675ZM134.416 8.88058C134.416 11.5051 132.044 13.6319 129.116 13.6319C126.188 13.6319 123.816 11.5051 123.816 8.88058C123.816 6.25604 126.188 4.12923 129.116 4.12923C132.044 4.12923 134.416 6.25604 134.416 8.88058ZM134.416 16.9013V36.3934H123.805V16.9013C127.198 18.3268 131.023 18.3268 134.416 16.9013Z" fill="white" fill-opacity="0.71"/>
</svg>
