<svg width="297" height="70" viewBox="0 0 297 70" fill="none" xmlns="http://www.w3.org/2000/svg">
<path d="M40.7669 70C59.9682 70 75.5338 54.33 75.5338 35C75.5338 15.67 59.9682 0 40.7669 0C21.5657 0 6 15.67 6 35C6 54.33 21.5657 70 40.7669 70Z" fill="#BDBDBD"/>
<path fill-rule="evenodd" clip-rule="evenodd" d="M20.4489 34.8475C31.1395 30.5105 38.2683 27.6513 41.8352 26.2699C52.0194 22.3257 54.1355 21.6405 55.5148 21.6179C55.8182 21.6129 56.4965 21.6829 56.9359 22.0149C57.3069 22.2952 57.409 22.6739 57.4578 22.9396C57.5067 23.2054 57.5675 23.8108 57.5191 24.2839C56.9672 29.6832 54.5792 42.786 53.3644 48.8333C52.8503 51.3922 51.8307 51.9399 50.8508 52.0238C48.7212 52.2063 47.1115 51.0237 45.0488 49.7647C41.8212 47.7947 39.8691 46.8856 36.7362 44.9632C33.1155 42.7415 36.3015 41.7027 38.3649 39.7072C38.9049 39.1849 48.1311 30.8343 48.0914 30.5831C48.077 30.4919 47.8032 29.5915 47.5888 29.414C47.3744 29.2365 47.0579 29.2972 46.8295 29.3455C46.5058 29.4139 41.3497 32.5872 31.3611 38.8654C29.8976 39.8012 28.5719 40.2571 27.3842 40.2332C26.0748 40.2069 23.5561 39.5439 21.6837 38.9771C19.3871 38.282 18.5394 37.9547 18.6983 36.7741C18.7811 36.1593 19.3646 35.517 20.4489 34.8475Z" fill="#1C1C1C"/>
<path d="M107.029 49.4118V23.5488H98.3901V18.8835H121.291V23.5488H112.563V49.4118H107.029ZM139.943 39.9453H125.275C125.41 43.9312 128.47 45.6523 132.024 45.6523C134.589 45.6523 136.388 45.2447 138.098 44.6559L138.908 48.4606C137.018 49.2759 134.409 49.8647 131.259 49.8647C124.15 49.8647 119.966 45.4712 119.966 38.7223C119.966 32.6076 123.655 26.8553 130.674 26.8553C137.783 26.8553 140.123 32.7435 140.123 37.59C140.123 38.6318 140.033 39.447 139.943 39.9453ZM125.275 36.05H134.904C134.949 34.0118 134.049 30.66 130.359 30.66C126.94 30.66 125.5 33.7853 125.275 36.05ZM144.781 49.4118V17.2529H150.316V49.4118H144.781ZM175.131 39.9453H160.463C160.598 43.9312 163.658 45.6523 167.212 45.6523C169.777 45.6523 171.577 45.2447 173.286 44.6559L174.096 48.4606C172.206 49.2759 169.597 49.8647 166.447 49.8647C159.339 49.8647 155.154 45.4712 155.154 38.7223C155.154 32.6076 158.844 26.8553 165.863 26.8553C172.971 26.8553 175.311 32.7435 175.311 37.59C175.311 38.6318 175.221 39.447 175.131 39.9453ZM160.463 36.05H170.092C170.137 34.0118 169.237 30.66 165.548 30.66C162.128 30.66 160.688 33.7853 160.463 36.05ZM199.811 33.6947V46.1959C199.811 50.8159 198.867 54.1223 196.572 56.2059C194.322 58.2441 191.128 58.8782 188.113 58.8782C185.324 58.8782 182.354 58.2441 180.465 57.1118L181.679 52.8994C183.074 53.7147 185.414 54.5753 188.068 54.5753C191.668 54.5753 194.367 52.6729 194.367 47.917V46.0147H194.277C193.018 47.9623 190.813 49.2759 187.888 49.2759C182.444 49.2759 178.575 44.7465 178.575 38.4959C178.575 31.2488 183.254 26.8553 188.518 26.8553C191.893 26.8553 193.827 28.4859 194.862 30.2976H194.952L195.177 27.3535H199.991C199.901 28.8482 199.811 30.66 199.811 33.6947ZM194.277 39.7641V36.1859C194.277 35.6423 194.232 35.1441 194.097 34.6912C193.512 32.6529 191.938 31.1129 189.598 31.1129C186.494 31.1129 184.199 33.8306 184.199 38.3147C184.199 42.0741 186.089 45.1088 189.553 45.1088C191.623 45.1088 193.422 43.75 194.052 41.7118C194.232 41.1682 194.277 40.3982 194.277 39.7641ZM205.775 49.4118V34.4647C205.775 31.4753 205.73 29.3012 205.595 27.3535H210.364L210.589 31.5206H210.724C211.804 28.4406 214.368 26.8553 216.753 26.8553C217.293 26.8553 217.608 26.9006 218.058 26.9912V32.2C217.563 32.1094 217.068 32.0641 216.393 32.0641C213.784 32.0641 211.939 33.74 211.444 36.2765C211.354 36.7747 211.309 37.3635 211.309 37.9523V49.4118H205.775ZM238.599 36.1859V44.1123C238.599 46.1053 238.689 48.0529 238.959 49.4118H233.965L233.56 46.9659H233.425C232.12 48.687 229.825 49.91 226.946 49.91C222.537 49.91 220.062 46.6941 220.062 43.3423C220.062 37.8165 224.966 34.9629 233.065 35.0082V34.6459C233.065 33.1965 232.48 30.7959 228.611 30.7959C226.451 30.7959 224.201 31.4753 222.717 32.4265L221.637 28.8029C223.257 27.8065 226.091 26.8553 229.555 26.8553C236.574 26.8553 238.599 31.3394 238.599 36.1859ZM233.2 41.6665V38.6318C229.286 38.5865 225.551 39.4018 225.551 42.7535C225.551 44.9276 226.946 45.9241 228.701 45.9241C230.95 45.9241 232.525 44.4747 233.065 42.8894C233.2 42.4818 233.2 42.0741 233.2 41.6665ZM244.653 49.4118V33.9212C244.653 31.3847 244.563 29.2559 244.473 27.3535H249.197L249.467 30.6147H249.602C250.637 28.8935 252.616 26.8553 256.351 26.8553C259.23 26.8553 261.48 28.4859 262.425 30.9318H262.515C263.279 29.7088 264.179 28.8029 265.169 28.1688C266.429 27.3082 267.824 26.8553 269.668 26.8553C273.268 26.8553 276.957 29.3465 276.957 36.4123V49.4118H271.558V37.2276C271.558 33.5588 270.298 31.3847 267.644 31.3847C265.754 31.3847 264.359 32.7435 263.774 34.3288C263.594 34.827 263.504 35.5518 263.504 36.1859V49.4118H258.105V36.6388C258.105 33.5588 256.89 31.3847 254.326 31.3847C252.256 31.3847 250.861 33.0153 250.322 34.51C250.142 35.0988 250.052 35.7329 250.052 36.367V49.4118H244.653Z" fill="#BDBDBD"/>
</svg>
