<svg width="216" height="51" viewBox="0 0 216 51" fill="none" xmlns="http://www.w3.org/2000/svg">
<path d="M31.7266 0C31.7296 0.738939 31.7967 1.47667 31.9258 2.2041L31.9854 2.50391C32.3036 4.00225 32.9024 5.42705 33.75 6.70215C34.6541 8.06219 35.8236 9.22369 37.1865 10.1162C37.1877 10.1176 37.1892 10.1187 37.1904 10.1201C39.1283 11.399 41.3963 12.0779 43.7139 12.0723V14.0059L43.7158 14.0068V20.7461C43.5816 20.7462 43.4475 20.7447 43.3135 20.7422C39.2871 20.6671 35.3718 19.4001 32.0566 17.0996L31.7275 16.8662V34.5068C31.7275 43.3105 24.6046 50.4844 15.8643 50.4844C12.8135 50.4839 9.83267 49.5947 7.2793 47.9307L6.77441 47.5879C6.77254 47.5859 6.77043 47.5841 6.76855 47.582C4.67919 46.1122 2.97325 44.1567 1.79492 41.8818C0.615516 39.6048 -0.000499175 37.0746 0 34.5068C4.15497e-05 25.6922 7.11135 18.5311 15.8516 18.542C16.5676 18.5456 17.2828 18.5967 17.9922 18.6943V20.748C12.1038 20.8856 6.99706 24.274 4.37988 29.2002C6.93785 24.3865 11.8743 21.043 17.5947 20.7725C17.7276 20.7662 17.8614 20.7617 17.9951 20.7588V27.5566C17.9107 27.5303 17.8251 27.5051 17.7393 27.4814C17.2238 27.3393 16.6843 27.2471 16.1299 27.2236C16.0376 27.2197 15.9446 27.2178 15.8516 27.2178C15.7317 27.218 15.6123 27.2214 15.4932 27.2275C13.7044 27.3198 12.0075 28.0758 10.7354 29.3564C9.37869 30.7224 8.61575 32.5737 8.61328 34.5049C8.61628 35.8355 8.9799 37.1402 9.66504 38.2783C10.3501 39.4163 11.3305 40.3449 12.501 40.9639C13.1186 41.8256 13.9166 42.5378 14.835 43.0576C13.918 42.5354 13.1234 41.8192 12.5117 40.9531C13.5464 41.5092 14.7019 41.7984 15.875 41.7959C17.7477 41.7911 19.5463 41.0579 20.8936 39.749C22.2408 38.4402 23.0329 36.6574 23.1035 34.7744L23.1143 0H31.7266ZM79.2002 21.7891H72.2188V50.4697H63.5127V21.7871L54.7598 21.7979L54.749 14.0303H81.6689L79.2002 21.7891ZM91.9453 50.4697H83.3672L83.3223 25.623H91.9453V50.4697ZM104.002 30.9082L112.546 22.4561H122.835L112.022 33.0166L124.126 50.4697H114.628L106.551 38.373L103.991 40.8701V50.4697H95.3672V13.9365H104.002V30.9082ZM150.861 21.7891H143.26V50.4697H134.543V21.7871L125.792 21.7979L125.779 14.0303H153.328L150.861 21.7891ZM166.864 20.7227C175.021 20.7229 181.635 27.379 181.635 35.5957C181.635 43.8127 175.024 50.4697 166.865 50.4697C158.706 50.4695 152.097 43.8126 152.097 35.5957C152.097 27.3788 158.707 20.7227 166.864 20.7227ZM195.366 30.9082L203.907 22.4561H214.196L203.385 33.0166L215.488 50.4697H206.003L197.926 38.373L195.366 40.8701V50.4697H186.74V13.9365H195.366V30.9082ZM3.96582 43.3779C4.61533 44.7969 5.47303 46.1226 6.52148 47.3066C5.48932 46.1356 4.6245 44.8138 3.96582 43.3779ZM3.90332 43.2412C3.91175 43.2601 3.9202 43.279 3.92871 43.2979C3.88311 43.197 3.83946 43.0951 3.7959 42.9932L3.90332 43.2412ZM3.68262 42.7197C3.7188 42.8092 3.75517 42.8985 3.79297 42.9873C3.75513 42.8986 3.71889 42.8092 3.68262 42.7197ZM166.864 28.3711C164.96 28.3711 163.133 29.1323 161.786 30.4873C160.44 31.8422 159.684 33.6797 159.684 35.5957C159.682 36.5451 159.866 37.4858 160.227 38.3633C160.587 39.2407 161.116 40.0382 161.782 40.71C162.449 41.3816 163.241 41.9138 164.112 42.2773C164.984 42.6409 165.919 42.8281 166.862 42.8281C170.818 42.8279 174.044 39.5923 174.044 35.5957C174.044 33.6797 173.288 31.8422 171.941 30.4873C170.595 29.1324 168.769 28.3712 166.864 28.3711ZM2.51855 37.0889C2.52455 37.3498 2.53704 37.6099 2.55566 37.8691C2.52828 37.4867 2.51466 37.1004 2.51465 36.7109L2.51855 37.0889ZM25.6045 36.9785H25.6055H25.6045ZM2.59375 35.1025C2.5674 35.367 2.54849 35.6333 2.53516 35.9014C2.54849 35.6333 2.5674 35.367 2.59375 35.1025ZM87.8389 14.043C88.3368 14.0674 88.8275 14.178 89.2891 14.3701C89.8164 14.5897 90.2955 14.9115 90.6992 15.3174C91.103 15.7233 91.4239 16.2058 91.6426 16.7363C91.8611 17.2666 91.9734 17.8351 91.9736 18.4092C91.9739 18.9835 91.8617 19.5523 91.6436 20.083C91.4254 20.6136 91.1055 21.0957 90.7021 21.502C90.2987 21.9082 89.8192 22.2312 89.292 22.4512C88.7648 22.6711 88.1996 22.7839 87.6289 22.7842C86.4763 22.7846 85.371 22.3245 84.5557 21.5049C83.7402 20.6851 83.2817 19.573 83.2812 18.4131C83.2808 17.2532 83.738 16.1408 84.5527 15.3203C85.3166 14.551 86.3358 14.097 87.4102 14.043C87.4817 14.0394 87.554 14.0381 87.626 14.0381C87.697 14.0381 87.768 14.0395 87.8389 14.043Z" fill="#BDBDBD"/>
</svg>
