<svg width="261" height="48" viewBox="0 0 261 48" fill="none" xmlns="http://www.w3.org/2000/svg">
<g opacity="0.71">
<path d="M46.7324 48C46.7324 48 68.5161 48 73.9194 46.56C76.9618 45.744 79.2498 43.392 80.0529 40.488C81.5376 35.16 81.5376 23.952 81.5376 23.952C81.5376 23.952 81.5376 12.816 80.0529 7.536C79.2498 4.56 76.9618 2.256 73.9194 1.464C68.5161 0 46.7324 0 46.7324 0C46.7324 0 24.9972 0 19.6182 1.464C16.6245 2.256 14.2879 4.56 13.436 7.536C12 12.816 12 23.952 12 23.952C12 23.952 12 35.16 13.436 40.488C14.2879 43.392 16.6245 45.744 19.6182 46.56C24.9972 48 46.7324 48 46.7324 48Z" fill="#BDBDBD"/>
<path d="M57.5591 24L39.5752 13.8V34.2L57.5591 24Z" fill="#1C1C1C"/>
</g>
<path d="M101.052 45.3597V32.2557L109.373 5.03979H103.162L99.9973 17.3998C99.2779 20.2318 98.6305 23.1838 98.1509 25.9197H97.7673C97.5035 23.5198 96.7362 20.3758 95.9689 17.3518L92.8996 5.03979H86.6892L94.8899 32.2557V45.3597H101.052Z" fill="#BDBDBD"/>
<path d="M117.746 15.1199C110.48 15.1199 107.987 19.3199 107.987 28.3678V32.6638C107.987 40.7758 109.545 45.8638 117.602 45.8638C125.539 45.8638 127.241 41.0158 127.241 32.6638V28.3678C127.241 20.2799 125.611 15.1199 117.746 15.1199ZM120.839 35.3278C120.839 39.2638 120.144 41.7358 117.626 41.7358C115.156 41.7358 114.461 39.2398 114.461 35.3278V25.6318C114.461 22.2719 114.94 19.2719 117.626 19.2719C120.455 19.2719 120.839 22.4399 120.839 25.6318V35.3278Z" fill="#BDBDBD"/>
<path d="M137.339 45.8157C140.84 45.8157 143.022 44.3517 144.82 41.7117H145.084L145.348 45.3597H150.119V15.6958H143.789V39.5277C143.117 40.7037 141.559 41.5677 140.096 41.5677C138.25 41.5677 137.675 40.1037 137.675 37.6557V15.6958H131.368V37.9437C131.368 42.7677 132.759 45.8157 137.339 45.8157Z" fill="#BDBDBD"/>
<path d="M162.647 45.3597V9.95979H169.937V5.03979H149.1V9.95979H156.389V45.3597H162.647Z" fill="#BDBDBD"/>
<path d="M174.749 45.8157C178.25 45.8157 180.432 44.3517 182.23 41.7117H182.494L182.758 45.3597H187.529V15.6958H181.199V39.5277C180.528 40.7037 178.969 41.5677 177.506 41.5677C175.66 41.5677 175.084 40.1037 175.084 37.6557V15.6958H168.778V37.9437C168.778 42.7677 170.169 45.8157 174.749 45.8157Z" fill="#BDBDBD"/>
<path d="M205.445 15.0478C202.376 15.0478 200.17 16.3918 198.707 18.5758H198.395C198.587 15.6958 198.731 13.2478 198.731 11.3038V3.45581H192.617L192.593 29.2317L192.617 45.3597H197.94L198.395 42.4797H198.563C199.978 44.4237 202.16 45.6477 205.061 45.6477C209.881 45.6477 211.943 41.4957 211.943 32.6637V28.0797C211.943 19.8238 211.008 15.0478 205.445 15.0478ZM205.661 32.6637C205.661 38.1837 204.846 41.4717 202.28 41.4717C201.081 41.4717 199.426 40.8957 198.683 39.8157V22.1758C199.33 20.4958 200.769 19.2718 202.376 19.2718C204.965 19.2718 205.661 22.4158 205.661 28.1517V32.6637Z" fill="#BDBDBD"/>
<path d="M234.165 27.5997C234.165 20.4478 233.446 15.1438 225.221 15.1438C217.476 15.1438 215.75 20.3038 215.75 27.8877V33.0957C215.75 40.4877 217.332 45.8637 225.029 45.8637C231.12 45.8637 234.261 42.8157 233.901 36.9117L228.506 36.6237C228.434 40.2717 227.595 41.7597 225.173 41.7597C222.128 41.7597 221.984 38.8557 221.984 34.5357V32.5197H234.165V27.5997ZM225.077 19.1278C228.003 19.1278 228.218 21.8878 228.218 26.5677V28.9917H221.984V26.5677C221.984 21.9358 222.176 19.1278 225.077 19.1278Z" fill="#BDBDBD"/>
</svg>
