<svg width="70" height="61" viewBox="0 0 70 61" fill="none" xmlns="http://www.w3.org/2000/svg">
<path d="M34.7012 0C34.9362 0.173741 41.489 11.8975 42.2021 13.1553L69.2852 60.914C65.0407 60.9898 60.4563 60.9239 56.1846 60.9238C56.0368 60.3205 55.5869 59.3161 55.3027 58.7441C53.8135 55.7469 51.7678 53.4922 48.8477 51.3535C39.0071 44.3056 24.1715 44.0891 12.4268 40.4346C10.2735 39.7645 5.4834 38.9506 5.4834 37.6348C5.48386 34.7589 14.6588 28.318 15.1455 28.6631C15.2594 29.1775 6.24074 36.8788 7.83398 37.3935C9.59724 37.9634 10.9139 38.4382 12.7969 38.5527L34.7012 0ZM34.7422 19.7676C32.7488 23.3448 30.7812 26.9319 28.8389 30.5283L26.3076 35.1572C25.8231 36.0415 25.2687 37.0033 24.8223 37.8945C23.8497 37.5591 18.724 38.3884 17.7568 38.3828C19.4984 38.3828 26.4475 38.4991 28.1289 38.5361C30.29 38.5837 32.3791 38.7116 34.2939 39.041C41.9536 40.5236 46.973 43.1988 49.8799 44.7617C45.6517 37.8849 44.8591 36.5092 43.6953 34.7578L38.7803 26.7568L38.0537 25.5693C37.9218 25.3277 34.8939 19.8333 34.7422 19.7676Z" fill="url(#paint0_linear_92_3192)"/>
<path d="M11.044 41.5123C11.2168 41.6045 11.9612 42.3068 12.1966 42.4814C12.8739 42.9833 13.5304 43.423 14.2683 43.8636C15.3659 44.5088 16.4987 45.1123 17.6635 45.6726C19.4674 46.556 21.3048 47.3892 23.0365 48.4182C23.843 48.8974 25.6802 50.1668 25.3844 51.1837C25.3044 51.4586 22.4523 53.6728 22.1087 53.5377C23.8495 51.7257 23.7741 51.0786 24.0236 50.902C23.2778 50.2457 20.3658 48.778 19.1904 48.3196C17.6571 51.2555 15.9209 54.3024 14.3166 57.2229L12.27 60.9506L2.2762e-10 60.9478L11.044 41.5123Z" fill="url(#paint1_linear_92_3192)"/>
<defs>
<linearGradient id="paint0_linear_92_3192" x1="37.428" y1="-4.65624e-06" x2="67.6862" y2="63.4474" gradientUnits="userSpaceOnUse">
<stop stop-color="#FEFEFE"/>
<stop offset="1" stop-color="#C1C1C1" stop-opacity="0.77"/>
</linearGradient>
<linearGradient id="paint1_linear_92_3192" x1="12.7081" y1="41.5123" x2="12.7081" y2="60.9506" gradientUnits="userSpaceOnUse">
<stop stop-color="#FEFEFE"/>
<stop offset="1" stop-color="#C1C1C1" stop-opacity="0.79"/>
</linearGradient>
</defs>
</svg>
