<svg width="602" height="220" viewBox="0 0 602 220" fill="none" xmlns="http://www.w3.org/2000/svg">
<g filter="url(#filter0_di_119_151)">
<path d="M14.5 182.25L54 7.24999H87.25L125.25 182.25H104.75L92.5 130.75H47L35.75 182.25H14.5ZM50.75 113.75H88.75L70.75 23.75H69L50.75 113.75ZM137.85 182.25L177.35 90.25L142.85 7.24999H164.85L189.85 67.5L215.35 7.24999H237.35L201.1 90.25L241.6 182.25H219.35L189.85 112.25L159.85 182.25H137.85ZM267.252 182.25V7.24999H289.252V182.25H267.252ZM366.096 184C350.596 184 338.762 180.083 330.596 172.25C322.429 164.25 318.346 153.167 318.346 139V50.5C318.346 36.3333 322.429 25.3333 330.596 17.5C338.762 9.49999 350.596 5.5 366.096 5.5C381.762 5.5 393.679 9.49999 401.846 17.5C410.012 25.3333 414.096 36.3333 414.096 50.5V139C414.096 153.167 410.012 164.25 401.846 172.25C393.679 180.083 381.762 184 366.096 184ZM366.096 167.5C373.429 167.5 379.596 165.417 384.596 161.25C389.596 156.917 392.096 150.917 392.096 143.25V46.25C392.096 38.5833 389.596 32.6667 384.596 28.5C379.596 24.1667 373.429 22 366.096 22C358.762 22 352.596 24.1667 347.596 28.5C342.762 32.6667 340.346 38.5833 340.346 46.25V143.25C340.346 150.917 342.762 156.917 347.596 161.25C352.596 165.417 358.762 167.5 366.096 167.5ZM440.533 182.25V7.24999H473.783L507.283 110.75H509.033L543.283 7.24999H575.283V182.25H553.283V33.5L519.783 135.75H496.033L462.533 33.25V182.25H440.533Z" fill="white"/>
</g>
<defs>
<filter id="filter0_di_119_151" x="0" y="0" width="601.783" height="219.5" filterUnits="userSpaceOnUse" color-interpolation-filters="sRGB">
<feFlood flood-opacity="0" result="BackgroundImageFix"/>
<feColorMatrix in="SourceAlpha" type="matrix" values="0 0 0 0 0 0 0 0 0 0 0 0 0 0 0 0 0 0 127 0" result="hardAlpha"/>
<feOffset dx="6" dy="15"/>
<feGaussianBlur stdDeviation="10.25"/>
<feComposite in2="hardAlpha" operator="out"/>
<feColorMatrix type="matrix" values="0 0 0 0 0.485514 0 0 0 0 0.476153 0 0 0 0 0.476153 0 0 0 0.43 0"/>
<feBlend mode="normal" in2="BackgroundImageFix" result="effect1_dropShadow_119_151"/>
<feBlend mode="normal" in="SourceGraphic" in2="effect1_dropShadow_119_151" result="shape"/>
<feColorMatrix in="SourceAlpha" type="matrix" values="0 0 0 0 0 0 0 0 0 0 0 0 0 0 0 0 0 0 127 0" result="hardAlpha"/>
<feOffset dx="5" dy="5"/>
<feGaussianBlur stdDeviation="2"/>
<feComposite in2="hardAlpha" operator="arithmetic" k2="-1" k3="1"/>
<feColorMatrix type="matrix" values="0 0 0 0 0 0 0 0 0 0 0 0 0 0 0 0 0 0 0.25 0"/>
<feBlend mode="normal" in2="shape" result="effect2_innerShadow_119_151"/>
</filter>
</defs>
</svg>
