<svg width="30" height="29" viewBox="0 0 30 29" fill="none" xmlns="http://www.w3.org/2000/svg">
<path d="M14.9999 0C11.4382 0.000146386 7.99268 1.25641 5.27995 3.544C2.56722 5.8316 0.764287 9.00125 0.193739 12.4858C-0.376808 15.9704 0.322265 19.5424 2.16587 22.5629C4.00948 25.5833 6.87732 27.855 10.2562 28.9715C11.0062 29.1017 11.2875 28.6557 11.2875 28.2654C11.2875 27.9123 11.2687 26.7415 11.2687 25.4965C7.49999 26.184 6.525 24.5859 6.225 23.7497C5.89211 22.9363 5.36442 22.2156 4.68751 21.6497C4.16251 21.3709 3.41252 20.6834 4.66874 20.6648C5.14842 20.7164 5.60848 20.8818 6.00995 21.1471C6.41141 21.4123 6.74244 21.7696 6.97499 22.1886C7.18015 22.5539 7.45601 22.8754 7.78677 23.1349C8.11753 23.3943 8.49669 23.5865 8.90253 23.7004C9.30836 23.8143 9.73289 23.8478 10.1518 23.7988C10.5707 23.7499 10.9757 23.6195 11.3437 23.4151C11.4086 22.6593 11.7485 21.9527 12.3 21.4267C8.96248 21.0551 5.475 19.7727 5.475 14.0863C5.45392 12.6087 6.00403 11.1792 7.01249 10.0908C6.55392 8.80668 6.60757 7.39741 7.16249 6.15116C7.16249 6.15116 8.41869 5.76089 11.2875 7.675C13.7419 7.00596 16.333 7.00596 18.7874 7.675C21.6561 5.74232 22.9124 6.15116 22.9124 6.15116C23.4674 7.3974 23.521 8.80669 23.0624 10.0908C24.0739 11.1773 24.6245 12.6081 24.5999 14.0863C24.5999 19.7913 21.0936 21.0551 17.7562 21.4267C18.1141 21.7863 18.3898 22.2181 18.5645 22.6926C18.7392 23.1672 18.8089 23.6735 18.7687 24.1771C18.7687 26.1655 18.7499 27.7636 18.7499 28.2654C18.7499 28.6557 19.0311 29.1203 19.7811 28.9716C23.1541 27.846 26.0137 25.569 27.8495 22.547C29.6852 19.525 30.3777 15.9547 29.8032 12.4735C29.2286 8.99236 27.4246 5.82683 24.7131 3.54202C22.0015 1.25721 18.559 0.0018359 14.9999 0Z" fill="black"/>
</svg>
