<svg width="24" height="23" viewBox="0 0 24 23" fill="none" xmlns="http://www.w3.org/2000/svg">
<path d="M13.8369 2.02992L16.414 2.0303C16.6394 2.03029 17.7321 2.04545 17.865 2L17.9359 2.07876C17.9554 2.09079 17.9968 2.11433 18.019 2.11507C18.5956 2.13428 19.1753 2.11383 19.7524 2.119C19.7562 2.3466 19.7381 4.05519 19.7673 4.11797C19.7954 4.14155 19.8469 4.18739 19.8751 4.20741C19.8833 4.21073 19.8915 4.2141 19.8997 4.2173C20.0636 4.28109 21.3195 4.26089 21.5719 4.24887C21.6508 4.24514 21.7343 4.20214 21.8095 4.20717C21.8395 4.20913 21.8679 4.22654 21.8837 4.25307C21.9338 4.33718 21.9057 5.41661 21.9045 5.61752C21.9039 5.72963 21.8807 5.91786 21.921 6.02252C21.9507 6.05172 21.9726 6.07328 22 6.10544L21.999 6.12925C21.9558 7.09739 21.9985 8.0929 21.9835 9.06383C21.9788 9.36773 21.9992 9.76652 21.9837 10.0584C21.5268 10.0962 20.9891 10.0624 20.5274 10.0734C20.3262 10.0783 20.0621 10.0577 19.8702 10.0958C19.855 10.1765 19.8609 10.4422 19.8608 10.5421L19.8605 11.4745L19.861 13.0293C19.8613 13.2551 19.8513 13.6704 19.8748 13.8871C20.1094 13.9359 20.4825 13.9312 20.7281 13.9312C21.1669 13.9312 21.5433 13.9201 21.9836 13.9563C21.9846 14.3303 22.0068 17.825 21.9695 17.9209L21.9467 17.9356C21.8476 18.0975 21.9367 19.4131 21.9083 19.6812C21.9034 19.7269 21.9098 19.9264 21.9115 19.9796C21.4816 19.9669 21.0457 19.9726 20.6149 19.9705C20.3953 19.9694 20.1538 19.9646 19.9354 19.9832C19.8985 19.9864 19.8606 20.0157 19.8313 20.0384L19.8199 20.0426C19.8013 20.067 19.7682 20.1109 19.7649 20.1404C19.7441 20.3259 19.7519 20.5483 19.7525 20.734L19.7561 21.8729C19.3879 21.867 19.0197 21.8645 18.6514 21.8654C18.4377 21.8651 18.0742 21.8297 17.9024 21.9401C17.8077 21.9943 17.2184 21.9687 17.0693 21.9686H15.5171L14.4175 21.9689C14.292 21.9689 13.9873 21.9765 13.8711 21.9642C12.8381 21.9909 11.7975 21.9642 10.7638 21.9735C10.6077 21.9749 10.4435 21.9763 10.2876 21.9715C9.36403 21.9803 8.42669 21.9578 7.50214 21.9687C7.00926 21.9746 6.47554 21.9439 5.99085 22C5.96663 21.9536 5.93375 21.9102 5.90374 21.8668C5.8403 21.8552 5.44625 21.8641 5.34479 21.8645C4.85824 21.8686 4.37169 21.8701 3.88521 21.8687C3.86865 21.4726 3.89866 21.0236 3.88748 20.6237C3.88335 20.4749 3.89968 20.2458 3.87528 20.1061C3.84138 20.0644 3.79983 20.0196 3.7639 19.979C3.67494 19.9579 3.55148 19.9675 3.45319 19.9666C2.9745 19.9618 2.48161 19.9944 2.0052 19.9656C1.85083 19.9562 1.96869 19.7063 1.9684 19.6158C1.96672 19.1011 1.98319 18.5799 1.96409 18.0653C1.9628 18.0313 1.93444 17.9813 1.91721 17.9516C1.89493 17.9163 1.87188 17.8814 1.84808 17.8471C1.75329 17.8239 1.55119 17.836 1.44595 17.8368L0.651834 17.8418C0.509582 17.8434 0.114851 17.8712 0.0143792 17.7905C-0.00469887 17.5402 0.00481322 17.2604 0.004873 17.0063L0.00504041 15.6806L0.00521967 11.5196L0.00519595 7.92949L0.00423327 6.86694C0.00312721 6.67196 -0.00753881 6.39471 0.00992496 6.20619L0.0952769 6.13108C0.172725 6.14269 0.259308 6.14613 0.337851 6.14589C0.802312 6.14471 1.26902 6.15969 1.73293 6.14086C1.77206 6.13926 1.84128 6.10585 1.87675 6.08897L1.88987 6.07411C1.91177 6.03845 1.9541 5.97182 1.95893 5.93077C1.99029 5.66448 1.96513 5.37355 1.96892 5.10389C1.96761 4.91341 1.97419 4.71849 1.97066 4.52848C1.96834 4.40316 1.87696 4.35832 1.98581 4.25532C2.08572 4.1608 2.11885 4.25313 2.23884 4.25159C2.55525 4.24976 2.87167 4.25053 3.18809 4.25396C3.39179 4.25426 3.61222 4.28198 3.79385 4.18857L3.80163 4.17945C3.927 3.99188 3.88718 3.61501 3.88688 3.38858L3.88365 2.12145C4.34383 2.10384 4.84616 2.12983 5.30975 2.12157C5.46077 2.11887 5.7728 2.14423 5.89776 2.11308L5.95994 2.04563C7.35542 2.02036 8.75127 2.01525 10.1469 2.03029C10.7254 2.02321 11.3038 2.02116 11.8823 2.02411C12.5338 2.02112 13.1854 2.02306 13.8369 2.02992Z" fill="#00EB00"/>
<path d="M14 2.02957L16.5256 2.02994C16.7465 2.02993 17.8174 2.04491 17.9476 2L18.017 2.07783C18.0362 2.08972 18.0768 2.11298 18.0986 2.11371C18.6636 2.13269 19.2317 2.11248 19.7973 2.11759C19.801 2.3425 19.7833 4.03088 19.8119 4.09292C19.8395 4.11621 19.8899 4.16151 19.9176 4.1813C19.9256 4.18457 19.9336 4.18791 19.9416 4.19107C20.1023 4.25411 21.3331 4.23415 21.5805 4.22227C21.6578 4.21858 21.7396 4.17609 21.8133 4.18106C21.8427 4.18299 21.8705 4.2002 21.886 4.22642C21.9351 4.30953 21.9075 5.3762 21.9064 5.57472C21.9058 5.68552 21.8831 5.87152 21.9225 5.97494C21.9517 6.00379 21.9732 6.02509 22 6.05687L21.9991 6.0804C21.9567 7.0371 21.9985 8.02083 21.9838 8.98027C21.9793 9.28058 21.9992 9.67464 21.9841 9.96307C21.5363 10.0004 21.0093 9.96699 20.5569 9.97794C20.3596 9.98273 20.1008 9.96243 19.9128 10C19.925 9.83162 19.9145 9.52751 19.9143 9.34654C19.9158 8.86292 19.9118 8.37931 19.9022 7.89581C19.7954 7.83688 18.6426 7.89845 18.4177 7.87381C18.3526 7.86667 18.0865 7.87387 18.0177 7.88019C18.0253 7.68646 18.017 7.45908 18.0167 7.26143L18.0135 5.9956L16.137 5.99483L16.1328 4.12277C15.4659 4.08923 14.6936 4.10539 14.0189 4.10632C14.0296 3.88286 14.0514 2.17149 14 2.02957Z" fill="#00AF00"/>
<path d="M16 4.00891C16.5797 4.01195 17.413 4.03807 17.9819 4L17.9808 5.43451C17.982 5.62235 17.9971 5.82219 17.9944 6.0052C18.1795 5.98205 18.3865 6.00161 18.5739 5.99659C19.0292 5.98446 19.5329 6.01573 19.9827 5.99728C19.985 6.64263 19.9606 7.36629 20 8C19.8867 7.93766 18.6633 8.00279 18.4247 7.97672C18.3556 7.96917 18.0733 7.97678 18.0002 7.98347C18.0082 7.77855 17.9995 7.53803 17.9992 7.32896L17.9958 5.98997L16.0045 5.98917L16 4.00891Z" fill="#00CC00"/>
<path d="M20.04 4.0007C20.0479 4.00429 20.0557 4.00795 20.0636 4.01141C20.2206 4.08051 21.4238 4.05863 21.6656 4.04561C21.7412 4.04157 21.8212 3.99499 21.8932 4.00044C21.9219 4.00256 21.9491 4.02142 21.9643 4.05016C22.0123 4.14126 21.9853 5.31047 21.9842 5.52808C21.9837 5.64953 21.9615 5.85341 22 5.96677C21.8951 6.00199 21.5233 5.99711 21.3935 5.9984L20.0115 6C20.0144 5.52821 19.9693 4.40474 20.04 4.0007Z" fill="#007700"/>
<path d="M18.018 2C18.0392 2.01161 18.084 2.03432 18.108 2.03503C18.732 2.05356 19.3594 2.03383 19.9839 2.03882C19.988 2.2584 19.9685 3.90681 20 3.96738C19.8301 4.01275 19.3567 3.99755 19.1571 3.99755L18.0043 3.99687C18.0257 3.40362 17.9867 2.79786 18.0051 2.20332C18.0074 2.13107 18.0223 2.07432 18.018 2Z" fill="#007700"/>
<path d="M19.9218 14C20.1521 14.0483 20.5185 14.0436 20.7597 14.0436C21.1907 14.0436 21.5603 14.0326 21.9926 14.0684C21.9937 14.4384 22.0155 17.8952 21.9788 17.9901L21.9564 18.0046C21.8591 18.1648 21.9466 19.4662 21.9187 19.7313C21.9139 19.7765 21.9202 19.9738 21.9218 20.0265C21.4997 20.0139 21.0716 20.0195 20.6486 20.0175C20.4329 20.0164 20.1958 20.0117 19.9813 20.0301C19.9451 20.0332 19.9078 20.0622 19.8791 20.0846L19.8679 20.0888C19.8496 20.1129 19.8171 20.1563 19.8138 20.1855C19.7934 20.369 19.8011 20.589 19.8017 20.7727L19.8053 21.8993C19.4437 21.8934 19.0821 21.8909 18.7204 21.8918C18.5105 21.8915 18.1536 21.8565 17.9849 21.9657C17.8919 22.0194 17.3132 21.994 17.1668 21.9939H15.6425L14.5626 21.9942C14.4394 21.9942 14.1402 22.0017 14.0261 21.9896C14.0184 21.3758 14.0313 20.7481 14 20.1379L15.1049 20.1408C15.2834 20.1412 15.6344 20.1499 15.7982 20.1263C15.9065 20.1251 16.0222 20.1153 16.1309 20.108C16.1443 20.0284 16.131 19.528 16.1302 19.4223C16.1279 18.9542 16.13 18.4861 16.1365 18.018L17.5177 18.0286C17.6062 18.0285 17.9462 18.0361 18.0144 18.0152C18.021 17.3861 18.0148 16.7632 18.0261 16.1324C18.5854 16.172 19.3081 16.1446 19.8839 16.1518C19.8894 16.0952 19.8971 16.0464 19.9061 15.9902C19.9266 15.3355 19.9188 14.6568 19.9218 14Z" fill="#00AF00"/>
<path d="M20.017 18.0019C20.4498 18.0063 20.8826 18.0082 21.3154 18.0079C21.4671 18.0086 21.8701 18.0188 22 18C21.9063 18.154 21.9906 19.4053 21.9637 19.6603C21.9591 19.7037 21.9651 19.8935 21.9667 19.9441C21.5603 19.932 21.1481 19.9374 20.7408 19.9354C20.5332 19.9344 20.3049 19.9299 20.0984 19.9476C20.0635 19.9505 20.0276 19.9785 20 20C20.044 19.8815 20.0149 18.2675 20.017 18.0019Z" fill="#007700"/>
<path d="M16.0076 18.0027L17.473 18.0128C17.5669 18.0127 17.9276 18.02 18 18C17.974 18.5752 17.9687 19.4157 17.9933 20C17.7916 19.9855 17.5891 19.9931 17.3865 19.9936L16.4478 19.9952C16.3319 19.9955 16.1078 20.0042 16.0017 19.9963C16.0159 19.9204 16.0019 19.4431 16.001 19.3422C15.9985 18.8957 16.0007 18.4492 16.0076 18.0027Z" fill="#00CC00"/>
<path d="M20 16C19.9985 16.1813 19.9797 16.3664 19.9806 16.5464C19.9831 17.0285 19.9803 17.5171 19.9896 17.9986C19.7372 17.9837 19.302 17.9975 19.0341 17.9998C18.7315 18.0024 18.2883 17.9808 18 17.996C18.007 17.376 18.0004 16.762 18.0123 16.1402C18.6037 16.1793 19.3677 16.1522 19.9765 16.1593C19.9823 16.1035 19.9904 16.0554 20 16Z" fill="#00CC00"/>
<path d="M18.0274 20.0091C18.6575 20.0397 19.2998 19.9998 19.9313 20.0258C19.9509 20.0267 19.9834 20.0086 20 20C19.9806 20.0257 19.9461 20.072 19.9426 20.1031C19.9209 20.2986 19.9291 20.533 19.9298 20.7288L19.9335 21.9291C19.5494 21.9229 19.1654 21.9203 18.7812 21.9212C18.5583 21.9209 18.1792 21.8836 18 22C18.0362 21.938 18.0213 21.5339 18.0213 21.4335L18.0274 20.0091Z" fill="#007700"/>
<path d="M2.01311 14.0077C2.42554 14.0276 2.86696 14.0037 3.28178 14.01C3.38436 14.0116 3.73171 13.9894 3.79694 14.0066L3.81525 14.0299C3.8072 14.6903 3.80063 15.4567 3.82879 16.1113C3.98567 16.1268 4.21548 16.1205 4.37864 16.1205L5.35495 16.1188C5.50933 16.1179 5.69272 16.1076 5.84279 16.114L5.84268 17.3092C5.84234 17.457 5.83565 17.8517 5.85605 17.9883C5.86892 18.6928 5.8654 19.375 5.86297 20.0791C6.04477 20.0688 6.25175 20.0778 6.43707 20.0788L7.24664 20.0792C7.37303 20.0801 7.55036 20.0896 7.6692 20.0829C7.7745 20.0923 7.8603 20.0988 7.96571 20.1001C8.13131 20.1226 8.44262 20.1146 8.61644 20.1142L9.72553 20.1097C9.70048 20.7181 9.7291 21.358 9.6989 21.9535C9.78017 21.9556 9.92678 21.9547 10 21.9717C9.12451 21.9805 8.23599 21.9582 7.35959 21.969C6.89238 21.9748 6.38646 21.9444 5.92701 22C5.90406 21.9541 5.87289 21.9111 5.84444 21.8681C5.7843 21.8566 5.41077 21.8655 5.3146 21.8658C4.85339 21.87 4.39218 21.8714 3.93103 21.8701C3.91533 21.4779 3.94378 21.0334 3.93319 20.6375C3.92928 20.4903 3.94475 20.2634 3.92163 20.1251C3.88949 20.0839 3.8501 20.0395 3.81604 19.9993C3.73171 19.9784 3.61468 19.9879 3.52151 19.987C3.06775 19.9823 2.60054 20.0146 2.14894 19.986C2.00261 19.9767 2.11433 19.7294 2.11405 19.6398C2.11246 19.1303 2.12808 18.6143 2.10997 18.1049C2.10874 18.0712 2.08186 18.0217 2.06553 17.9923C2.04441 17.9574 2.02256 17.9228 2 17.8889C2.03048 17.8243 2.01506 14.3791 2.01311 14.0077Z" fill="#00AF00"/>
<path d="M4.00127 16C4.15594 16.0164 4.38251 16.0097 4.54338 16.0097L5.50595 16.0079C5.65815 16.007 5.83897 15.9961 5.98692 16.0029L5.98681 17.272C5.98648 17.4289 5.97988 17.848 6 17.9932C5.92541 17.9889 5.84131 17.9877 5.76661 17.9912C5.18505 18.0184 4.58869 17.9727 4.00954 17.986C3.99278 17.3205 4.00373 16.6653 4.00127 16Z" fill="#00CC00"/>
<path d="M2 18.0161C2.13048 18.026 2.33531 18.0051 2.48035 18.0093C2.95609 18.0229 3.53014 17.9838 3.99649 18.0082C4.00613 18.6495 3.99202 19.2944 3.99962 19.9362C3.99987 19.9601 3.9878 19.9814 3.97267 20C3.87763 19.9794 3.74575 19.9888 3.64076 19.9879C3.12941 19.9833 2.6029 20.0151 2.09399 19.9869C1.92909 19.9777 2.05499 19.7332 2.05468 19.6447C2.05288 19.141 2.07048 18.631 2.05008 18.1274C2.0487 18.0941 2.0184 18.0452 2 18.0161Z" fill="#007700"/>
<path d="M4 20.0629C4.00533 20.0613 4.01065 20.0597 4.01592 20.0579C4.05303 20.0449 4.02113 20.057 4.05204 20.0396C4.13399 19.9934 5.82475 19.9913 6 20.0145L5.99865 21.2993C5.99865 21.4416 6.00451 21.8794 5.98595 21.9973C5.92385 21.9846 5.53805 21.9944 5.43872 21.9948C4.96236 21.9994 4.48601 22.0009 4.00972 21.9995C3.9935 21.5643 4.02289 21.0709 4.01194 20.6316C4.0079 20.4682 4.02388 20.2164 4 20.0629Z" fill="#007700"/>
<path d="M1.98741 6C1.96418 6.09187 1.97154 7.02645 1.97326 7.19878C1.98267 8.14303 1.95898 9.10203 1.97366 10.0444C2.54166 10.1153 3.40893 10.0203 3.98387 10.0824C4.00888 10.5918 3.99729 11.1794 3.99748 11.6945C4.00109 12.4701 3.99691 13.2457 3.98495 14.0213L3.9645 13.9972C3.89162 13.9795 3.50358 14.0024 3.38899 14.0008C2.92558 13.9943 2.43244 14.0189 1.97169 13.9984C1.97388 14.3813 1.99111 17.9328 1.95705 17.9995C1.85668 17.9758 1.64265 17.988 1.53121 17.9889L0.690268 17.994C0.539629 17.9956 0.121623 18.024 0.015227 17.9416C-0.00497593 17.6862 0.00509702 17.4007 0.00516033 17.1413L0.00533761 15.7885L0.00552744 11.542L0.00550232 7.87829L0.00448288 6.79393C0.0033116 6.59495 -0.00798332 6.31201 0.0105102 6.11962L0.100895 6.04298C0.182909 6.05482 0.274598 6.05833 0.357771 6.05809C0.849619 6.05688 1.34385 6.07217 1.83511 6.05295C1.87654 6.05132 1.94985 6.01723 1.98741 6Z" fill="#007700"/>
<path d="M2.01427 10C2.57088 10.0713 3.42078 9.9758 3.98419 10.0382C4.0087 10.5506 3.99735 11.1416 3.99753 11.6596C4.00107 12.4398 3.99698 13.2199 3.98525 14L3.96521 13.9758C3.8938 13.958 3.51353 13.981 3.40124 13.9794C2.94711 13.9728 2.46385 13.9976 2.01235 13.977C2.00081 13.3307 1.99736 12.6843 2.002 12.038C1.99723 11.3586 2.00133 10.6792 2.01427 10Z" fill="#00CC00"/>
<path d="M5.95841 2.02356C7.30543 1.99851 8.6528 1.99343 10 2.00835C9.94714 2.01333 9.88129 2.01253 9.83916 2.0411C9.81821 2.12446 9.83916 2.52561 9.84037 2.6385C9.84551 3.11689 9.83224 3.6049 9.85642 4.08164C9.77695 4.08234 9.61686 4.07958 9.54495 4.09056C8.94326 4.09362 8.36367 4.08915 7.76181 4.10912C7.18118 4.09115 6.52305 4.11899 5.92811 4.10977C5.9183 4.7398 5.94127 5.36096 5.91086 5.98941C5.23316 6.00955 4.5471 5.98759 3.86577 6.00162C3.85457 6.44494 3.84262 6.88262 3.85105 7.32694C3.85411 7.4898 3.84257 7.72456 3.85336 7.87926C3.82791 8.51147 3.81989 9.36116 3.83685 10C3.31278 9.93968 2.52224 10.0319 2.00449 9.96306C1.99112 9.04735 2.01271 8.11549 2.00413 7.19796C2.00257 7.03051 1.99585 6.12238 2.01703 6.0331L2.0297 6.01836C2.05083 5.983 2.09169 5.91693 2.09635 5.87623C2.12663 5.61216 2.10234 5.32367 2.106 5.05625C2.10474 4.86737 2.11109 4.67408 2.10768 4.48566C2.10544 4.36138 2.01724 4.31692 2.1223 4.21478C2.21874 4.12105 2.25072 4.21261 2.36655 4.21108C2.67196 4.20926 2.9774 4.21003 3.28283 4.21343C3.47945 4.21373 3.69223 4.24121 3.86755 4.14859L3.87506 4.13955C3.99608 3.95354 3.95764 3.57982 3.95735 3.35528L3.95424 2.09875C4.39843 2.08128 4.88332 2.10706 5.33081 2.09886C5.47658 2.09619 5.77778 2.12134 5.89839 2.09045L5.95841 2.02356Z" fill="#00AF00"/>
<path d="M5.97415 2C5.9826 2.01385 5.99104 2.02771 5.99949 2.04156C6.00196 2.28 5.99476 2.51871 5.9929 2.75713L5.99419 3.96859C5.41879 3.97122 4.84096 3.9675 4.26543 3.97277C4.1616 3.97369 4.08959 3.99467 4 4C4.11808 3.81845 4.08058 3.45368 4.08029 3.23453L4.07725 2.0081C4.51065 1.99106 4.98375 2.01621 5.42036 2.00821C5.5626 2.00561 5.85647 2.03015 5.97415 2Z" fill="#007700"/>
<path d="M2 6C2.023 5.96218 2.06746 5.8915 2.07254 5.84797C2.10548 5.56551 2.07906 5.25692 2.08304 4.97088C2.08166 4.76884 2.08857 4.56209 2.08486 4.36055C2.08242 4.22761 1.98644 4.18005 2.10077 4.0708C2.20573 3.97054 2.24053 4.06848 2.36657 4.06684C2.69893 4.0649 3.03131 4.06571 3.36369 4.06936C3.57766 4.06967 3.80921 4.09907 4 4C3.98198 4.65877 4.00414 5.3171 3.99096 5.97355C3.43723 5.98442 2.88058 5.9728 2.32647 5.97763C2.20184 5.9787 2.10625 5.99686 2 6Z" fill="#007700"/>
<path d="M10.4495 2.00711C11.0011 2.00044 11.5527 1.9985 12.1042 2.00128C12.7255 1.99846 13.3469 2.00029 13.9681 2.00677C14.0182 2.1423 13.9969 3.77664 13.9865 3.99004C13.2287 3.99831 12.471 4.00077 11.7131 3.99736C11.1574 3.99703 10.5514 4.00759 10 3.98864C10.071 3.97819 10.2292 3.98082 10.3077 3.98015C10.2838 3.52646 10.2969 3.06205 10.2918 2.6068C10.2906 2.49937 10.2699 2.11761 10.2906 2.03828C10.3323 2.01109 10.3973 2.01185 10.4495 2.00711Z" fill="#00CC00"/>
<path d="M6.12275 4.00724C6.72995 4.017 7.40164 3.98752 7.99423 4.00655C7.9881 4.19561 7.98857 4.39998 7.99381 4.58898C8.00671 5.05377 7.98268 5.52994 8 5.9931L6.71999 5.99895C6.56067 5.9992 6.25563 6.01027 6.10909 5.99709C6.09248 6.60396 6.0797 7.37912 6.09825 7.9875C5.64655 7.99552 5.19473 7.99807 4.74297 7.99527C4.57823 7.99453 4.14379 7.98146 4.00525 8C3.99424 7.83613 4.00602 7.58747 4.0029 7.41496C3.9943 6.94432 4.00649 6.48072 4.01792 6.01115C4.71329 5.99628 5.41348 6.01954 6.10514 5.99821C6.13618 5.33254 6.11274 4.67458 6.12275 4.00724Z" fill="#00CC00"/>
<path d="M8 20.0063C8.40046 19.9999 8.8187 20.0085 9.22227 20.0068L12.9873 20.0022L14.9149 20.0089C15.2303 20.0085 15.6949 19.9911 16 20.006C15.8229 20.0311 15.4434 20.0219 15.2504 20.0215L14.0557 20.0183C14.0895 20.6671 14.0756 21.3346 14.0838 21.9871C12.987 22.0152 11.882 21.9871 10.7844 21.9969C10.6186 21.9984 10.4443 21.9998 10.2788 21.9947C10.1968 21.9767 10.0325 21.9776 9.94148 21.9754C9.97532 21.3427 9.94326 20.6629 9.97132 20.0166L8.72893 20.0213C8.53422 20.0217 8.1855 20.0302 8 20.0063Z" fill="#00CC00"/>
<path d="M6 18C6.14176 18.0199 6.43241 18.0076 6.58641 18.0112C7.04991 18.0223 7.54056 17.9983 8 18.0043L7.9975 19.3245C7.99688 19.5285 7.98814 19.7968 7.99713 19.9977C7.86623 20.0041 7.6709 19.9951 7.53169 19.9942L6.63997 19.9938C6.43584 19.9928 6.20787 19.9843 6.00762 19.9941C6.0103 19.3225 6.01417 18.6719 6 18Z" fill="#00CC00"/>
<path d="M10.1308 8C10.6495 8.02319 11.2046 8.01408 11.7264 8.01426L13.8745 8.01071C13.8883 8.71419 13.8757 9.42175 13.8805 10.1263C13.9872 10.1194 14.1139 10.1241 14.2216 10.1268C14.8101 10.1413 15.4063 10.115 15.9936 10.1272C15.9849 10.5109 15.999 10.9544 15.9993 11.3461C16.0013 12.1873 15.999 13.0285 15.9924 13.8697C15.2886 13.881 14.5888 13.8722 13.8857 13.8765C13.8672 14.559 13.8782 15.2946 13.8766 15.9838C12.649 16.0213 11.3612 15.9803 10.1265 15.9921C10.137 15.3016 10.1198 14.5639 10.1188 13.8707C9.92299 13.8853 9.61784 13.8767 9.41578 13.877L8.00605 13.875C8.01157 12.6209 7.98719 11.3754 8.00979 10.1163C8.71035 10.1413 9.44887 10.1024 10.123 10.131C10.1189 9.42068 10.1216 8.71028 10.1308 8Z" fill="#00CC00"/>
<path d="M10.0062 10C10.394 10.0217 10.9246 10.009 11.3176 10.009L13.9908 10.0081C13.9985 10.3876 14.0128 13.9228 13.9754 13.9927L11.3346 13.9978C11.0272 13.9977 10.2744 13.9743 10.0023 14L10 11.1126C10.0002 10.76 10.0153 10.3427 10.0062 10Z" fill="#00AF00"/>
<path d="M22.1602 6C22.3088 6.09378 22.675 6.02448 22.8512 6.04499C23.1121 6.07537 23.7874 5.98135 23.9938 6.05769C24.006 7.15133 23.9965 8.26272 23.9965 9.3575L23.9982 17.9246C23.4098 17.9142 22.8214 17.9132 22.233 17.9215C22.2011 17.9454 22.1592 17.9751 22.1294 18C22.1671 17.9026 22.1447 14.3533 22.1436 13.9734C21.6994 13.9367 21.3196 13.9479 20.8768 13.948C20.629 13.948 20.2525 13.9527 20.0158 13.9032C19.9921 13.6831 20.0022 13.2613 20.0019 13.032L20.0013 11.4529L20.0017 10.5059C20.0018 10.4045 19.9958 10.1346 20.0112 10.0526C20.2048 10.014 20.4713 10.0349 20.6743 10.03C21.1401 10.0187 21.6828 10.0531 22.1438 10.0147C22.1594 9.71824 22.1388 9.31323 22.1435 9.00459C22.1587 8.0185 22.1156 7.00744 22.1592 6.02418L22.1602 6Z" fill="#007700"/>
<path d="M20.0104 10.0384C20.19 9.99933 20.4373 10.0204 20.6257 10.0154C21.0579 10.0041 21.5614 10.0388 21.9892 10C21.9991 10.6983 22.0022 11.3968 21.9984 12.0952C22.0023 12.7301 21.9992 13.3652 21.9891 14C21.5769 13.9629 21.2245 13.9742 20.8136 13.9743C20.5836 13.9743 20.2343 13.9791 20.0147 13.929C19.9927 13.7067 20.002 13.2804 20.0017 13.0488L20.0012 11.4533L20.0016 10.4963C20.0016 10.3939 19.9961 10.1212 20.0104 10.0384Z" fill="#00CC00"/>
<path d="M6.08624 1.80628C6.06454 1.73387 6.04369 1.66308 6.03586 1.58718C6.0141 1.37725 5.99687 0.326413 6.03206 0.15174C6.0452 0.0867499 6.07852 0.0437671 6.13541 0.0127892C6.18085 -0.0119855 6.21767 0.00469249 6.26498 0.0172137C6.4841 0.0752169 7.03786 0.0393298 7.30055 0.0392852L9.58249 0.0391514L14.8043 0.0391896C15.8066 0.0392279 16.9192 0.067898 17.9076 0.0136691C18.0113 0.0773144 17.9781 0.499409 17.9776 0.62735L17.9734 1.55303C17.9727 1.64999 17.9587 1.87653 18 1.95088C17.866 1.99981 16.7647 1.98349 16.5375 1.9835L13.9398 1.98309C13.2831 1.9757 12.6263 1.97362 11.9695 1.97684C11.3865 1.97366 10.8034 1.97587 10.2204 1.98349C8.81359 1.96729 7.40661 1.9728 6 2L6.08624 1.80628Z" fill="#007700"/>
<path d="M13.943 22.0129C14.06 22.0195 14.3666 22.0154 14.4929 22.0154L15.5995 22.0153H17.1616C17.3116 22.0153 17.9047 22.029 18 22C17.9971 22.0021 17.9942 22.0041 17.9915 22.0062C17.8229 22.1329 18.0552 22.9376 17.8715 22.9989C17.4435 22.9631 17.0266 22.9763 16.5895 22.9763L14.7355 22.9762L8.21653 22.976C7.61715 22.976 7.01771 22.9764 6.41839 22.9761C6.18476 22.976 6.17628 23.0516 6.00583 22.9345C5.98976 22.7231 6.01263 22.5065 6.00691 22.2948C6.00444 22.2041 6.09644 22.1109 6.01275 22.0321C6.50052 22.002 7.03763 22.0185 7.53364 22.0153C8.46406 22.0095 9.40735 22.0215 10.3368 22.0168C10.4937 22.0194 10.6589 22.0187 10.816 22.0179C11.8563 22.0129 12.9035 22.0272 13.943 22.0129Z" fill="#007700"/>
</svg>
