<svg width="20" height="20" viewBox="0 0 20 20" fill="none" xmlns="http://www.w3.org/2000/svg">
<path d="M10 0.25C15.3619 0.25 19.75 4.63807 19.75 10C19.75 15.3619 15.3619 19.75 10 19.75C4.63807 19.75 0.25 15.3619 0.25 10C0.25 4.63807 4.63807 0.25 10 0.25ZM7.6709 14.2139C7.92399 15.5215 8.28468 16.588 8.67383 17.334C8.86801 17.7062 9.07473 18.0088 9.28613 18.2217C9.49237 18.4293 9.73524 18.583 10 18.583C10.2648 18.583 10.5076 18.4293 10.7139 18.2217C10.9253 18.0088 11.132 17.7062 11.3262 17.334C11.7153 16.588 12.076 15.5215 12.3291 14.2139L12.3867 13.917H7.61328L7.6709 14.2139ZM2.5332 14.291C3.56493 16.0963 5.28108 17.4671 7.25098 18.1523L7.83203 18.3545L7.55664 17.8047C7.06992 16.8312 6.65994 15.5219 6.41309 14.123L6.37598 13.917H2.31934L2.5332 14.291ZM13.5869 14.123C13.3401 15.5219 12.9301 16.8312 12.4434 17.8047L12.168 18.3545L12.749 18.1523C14.7189 17.4671 16.4351 16.0963 17.4668 14.291L17.6807 13.917H13.624L13.5869 14.123ZM1.8457 7.4209C1.58812 8.19367 1.41699 9.13713 1.41699 10C1.41699 10.8629 1.58812 11.8063 1.8457 12.5791L1.90332 12.75H6.27637L6.24902 12.4756C6.16714 11.6567 6.16699 10.8354 6.16699 10C6.16699 9.16462 6.16714 8.34329 6.24902 7.52441L6.27637 7.25H1.90332L1.8457 7.4209ZM7.41797 7.47266C7.33447 8.22413 7.25 9.06886 7.25 10C7.25 10.9311 7.33447 11.7759 7.41797 12.5273L7.44336 12.75H12.6406L12.665 12.5273C12.7485 11.7759 12.833 10.9312 12.833 10C12.833 9.06884 12.7485 8.22414 12.665 7.47266L12.6406 7.25H7.44336L7.41797 7.47266ZM13.7549 7.54883C13.9159 8.35396 13.917 9.16279 13.917 10C13.917 10.8354 13.9168 11.6567 13.835 12.4756L13.8066 12.75H18.2002L18.2441 12.5547C18.4117 11.8006 18.583 10.8617 18.583 10C18.583 9.13713 18.4119 8.19367 18.1543 7.4209L18.0967 7.25H13.6953L13.7549 7.54883ZM7.25098 1.84766C5.27576 2.53478 3.64796 3.9077 2.53711 5.70215L2.30078 6.08301H6.37598L6.41309 5.87695C6.65994 4.47812 7.06992 3.16883 7.55664 2.19531L7.83203 1.64551L7.25098 1.84766ZM10.083 1.41699C9.82055 1.41712 9.57345 1.56849 9.36035 1.77441C9.14119 1.98627 8.92397 2.28849 8.71875 2.66113C8.30754 3.4079 7.92455 4.47559 7.6709 5.78613L7.61328 6.08301H12.4697L12.4121 5.78613C12.159 4.47843 11.7984 3.41205 11.4092 2.66602C11.215 2.29381 11.0083 1.99121 10.7969 1.77832C10.5907 1.57072 10.3477 1.41699 10.083 1.41699ZM12.4434 2.19531C12.9301 3.16883 13.3401 4.47812 13.5869 5.87695L13.624 6.08301H17.6807L17.4668 5.70898C16.4351 3.90367 14.7189 2.53293 12.749 1.84766L12.168 1.64551L12.4434 2.19531Z" fill="white" stroke="#151515" stroke-width="0.5"/>
</svg>
