<svg width="12" height="12" viewBox="0 0 12 12" fill="none" xmlns="http://www.w3.org/2000/svg">
<path d="M6.91846 1.01496L8.20702 1.01515C8.31972 1.01514 8.86605 1.02273 8.93251 1L8.96793 1.03938C8.97771 1.0454 8.99842 1.05717 9.00951 1.05754C9.29778 1.06714 9.58765 1.05692 9.87618 1.0595C9.8781 1.1733 9.86907 2.0276 9.88363 2.05899C9.89771 2.07077 9.92345 2.09369 9.93756 2.1037C9.94165 2.10536 9.94575 2.10705 9.94984 2.10865C10.0318 2.14054 10.6598 2.13045 10.786 2.12443C10.8254 2.12257 10.8672 2.10107 10.9047 2.10359C10.9197 2.10456 10.9339 2.11327 10.9419 2.12654C10.9669 2.16859 10.9528 2.70831 10.9523 2.80876C10.952 2.86482 10.9404 2.95893 10.9605 3.01126C10.9754 3.02586 10.9863 3.03664 11 3.05272L10.9995 3.06462C10.9779 3.5487 10.9993 4.04645 10.9917 4.53192C10.9894 4.68387 10.9996 4.88326 10.9919 5.0292C10.7634 5.04809 10.4945 5.03118 10.2637 5.03672C10.1631 5.03915 10.031 5.02887 9.9351 5.04788C9.92751 5.08825 9.93044 5.2211 9.93041 5.27103L9.93023 5.73727L9.9305 6.51467C9.93065 6.62753 9.92566 6.83521 9.93741 6.94354C10.0547 6.96795 10.2412 6.96561 10.364 6.96561C10.5835 6.96558 10.7717 6.96004 10.9918 6.97813C10.9923 7.16515 11.0034 8.9125 10.9848 8.96047L10.9733 8.96779C10.9238 9.04875 10.9684 9.70657 10.9541 9.84061C10.9517 9.86344 10.9549 9.96318 10.9557 9.9898C10.7408 9.98344 10.5228 9.98628 10.3075 9.98524C10.1977 9.98471 10.0769 9.98231 9.96772 9.99161C9.94924 9.99318 9.93029 10.0079 9.91567 10.0192L9.90993 10.0213C9.90064 10.0335 9.88408 10.0554 9.88243 10.0702C9.87203 10.163 9.87595 10.2741 9.87627 10.367L9.87807 10.9364C9.69395 10.9335 9.50984 10.9322 9.3257 10.9327C9.21883 10.9325 9.0371 10.9149 8.95122 10.9701C8.90387 10.9972 8.60921 10.9844 8.53465 10.9843H7.75856L7.20873 10.9845C7.14598 10.9845 6.99365 10.9882 6.93553 10.9821C6.41906 10.9955 5.89874 10.9821 5.38188 10.9868C5.30383 10.9875 5.22177 10.9882 5.14381 10.9857C4.68201 10.9901 4.21334 10.9789 3.75107 10.9844C3.50463 10.9873 3.23777 10.9719 2.99542 11C2.98332 10.9768 2.96687 10.9551 2.95187 10.9334C2.92015 10.9276 2.72312 10.9321 2.67239 10.9322C2.42912 10.9343 2.18585 10.935 1.9426 10.9344C1.93432 10.7363 1.94933 10.5118 1.94374 10.3118C1.94168 10.2375 1.94984 10.1229 1.93764 10.053C1.92069 10.0322 1.89992 10.0098 1.88195 9.98948C1.83747 9.97893 1.77574 9.98376 1.72659 9.98329C1.48725 9.98092 1.24081 9.99721 1.0026 9.98278C0.925416 9.9781 0.984345 9.85316 0.984198 9.80791C0.983358 9.55056 0.991597 9.28996 0.982046 9.03267C0.9814 9.01564 0.967219 8.99065 0.958606 8.97581C0.947465 8.95816 0.935941 8.94072 0.92404 8.92357C0.876647 8.91197 0.775593 8.91798 0.722977 8.91842L0.325917 8.92091C0.254791 8.92168 0.0574256 8.9356 0.00718958 8.89523C-0.00234943 8.77011 0.00240661 8.63022 0.0024365 8.50314L0.0025202 7.84032L0.00260983 5.75978L0.00259797 3.96475L0.00211663 3.43347C0.0015636 3.33598 -0.0037694 3.19735 0.00496248 3.10309L0.0476384 3.06554C0.0863625 3.07135 0.129654 3.07306 0.168925 3.07295C0.401156 3.07235 0.63451 3.07985 0.866466 3.07043C0.886028 3.06963 0.920642 3.05293 0.938374 3.04449L0.944936 3.03705C0.955883 3.01923 0.977048 2.98591 0.979463 2.96539C0.995145 2.83224 0.982566 2.68678 0.984461 2.55194C0.983807 2.4567 0.987095 2.35924 0.985331 2.26424C0.984168 2.20158 0.938482 2.17916 0.992903 2.12766C1.04286 2.0804 1.05943 2.12657 1.11942 2.1258C1.27762 2.12488 1.43583 2.12526 1.59405 2.12698C1.69589 2.12713 1.80611 2.14099 1.89693 2.09429L1.90081 2.08973C1.9635 1.99594 1.94359 1.8075 1.94344 1.69429L1.94183 1.06072C2.17192 1.05192 2.42308 1.06491 2.65488 1.06078C2.73039 1.05944 2.8864 1.07212 2.94888 1.05654L2.97997 1.02281C3.67771 1.01018 4.37563 1.00762 5.07347 1.01514C5.36269 1.01161 5.65191 1.01058 5.94113 1.01206C6.26691 1.01056 6.59271 1.01153 6.91846 1.01496Z" fill="#00EB00"/>
<path d="M7 1.01478L8.26282 1.01497C8.37326 1.01497 8.90868 1.02246 8.97381 1L9.00852 1.03892C9.0181 1.04486 9.03841 1.05649 9.04928 1.05686C9.33178 1.06634 9.61587 1.05624 9.89864 1.0588C9.90051 1.17125 9.89166 2.01544 9.90593 2.04646C9.91973 2.05811 9.94495 2.08076 9.95878 2.09065C9.96279 2.09229 9.96681 2.09396 9.97082 2.09554C10.0512 2.12705 10.6665 2.11707 10.7902 2.11113C10.8289 2.10929 10.8698 2.08804 10.9066 2.09053C10.9213 2.0915 10.9353 2.1001 10.943 2.11321C10.9676 2.15477 10.9538 2.6881 10.9532 2.78736C10.9529 2.84276 10.9416 2.93576 10.9613 2.98747C10.9759 3.00189 10.9866 3.01255 11 3.02844L10.9995 3.0402C10.9783 3.51855 10.9993 4.01041 10.9919 4.49014C10.9896 4.64029 10.9996 4.83732 10.992 4.98153C10.7681 5.0002 10.5046 4.9835 10.2784 4.98897C10.1798 4.99137 10.0504 4.98121 9.95638 5C9.9625 4.91581 9.95723 4.76375 9.95714 4.67327C9.9579 4.43146 9.95588 4.18966 9.9511 3.94791C9.8977 3.91844 9.32129 3.94922 9.20885 3.9369C9.17631 3.93333 9.04327 3.93693 9.00885 3.94009C9.01263 3.84323 9.0085 3.72954 9.00835 3.63072L9.00677 2.9978L8.0685 2.99742L8.06639 2.06138C7.73293 2.04462 7.34678 2.05269 7.00946 2.05316C7.01482 1.94143 7.02572 1.08575 7 1.01478Z" fill="#00AF00"/>
<path d="M8 2.00446C8.28987 2.00597 8.70648 2.01904 8.99094 2L8.99041 2.71726C8.991 2.81117 8.99855 2.9111 8.99722 3.0026C9.08977 2.99102 9.19323 3.0008 9.28696 2.9983C9.51462 2.99223 9.76643 3.00786 9.99133 2.99864C9.99251 3.32131 9.98029 3.68315 10 4C9.94333 3.96883 9.33167 4.00139 9.21235 3.98836C9.17781 3.98458 9.03664 3.98839 9.00011 3.99174C9.00412 3.88927 8.99974 3.76901 8.99958 3.66448L8.9979 2.99498L8.00224 2.99458L8 2.00446Z" fill="#00CC00"/>
<path d="M10.02 2.00035C10.0239 2.00215 10.0279 2.00397 10.0318 2.00571C10.1103 2.04025 10.7119 2.02932 10.8328 2.0228C10.8706 2.02078 10.9106 1.9975 10.9466 2.00022C10.961 2.00128 10.9746 2.01071 10.9822 2.02508C11.0062 2.07063 10.9927 2.65524 10.9921 2.76404C10.9918 2.82476 10.9807 2.9267 11 2.98338C10.9475 3.00099 10.7617 2.99856 10.6967 2.9992L10.0057 3C10.0072 2.76411 9.98466 2.20237 10.02 2.00035Z" fill="#007700"/>
<path d="M9.00902 1C9.0196 1.0058 9.04202 1.01716 9.05402 1.01752C9.36598 1.02678 9.67969 1.01692 9.99194 1.01941C9.99402 1.1292 9.98425 1.95341 10 1.98369C9.91505 2.00638 9.67833 1.99878 9.57853 1.99878L9.00213 1.99843C9.01287 1.70181 8.99333 1.39893 9.00255 1.10166C9.00369 1.06553 9.01116 1.03716 9.00902 1Z" fill="#007700"/>
<path d="M9.9609 7C10.0761 7.02414 10.2593 7.02182 10.3799 7.02182C10.5953 7.02179 10.7802 7.01632 10.9963 7.03421C10.9968 7.2192 11.0077 8.94761 10.9894 8.99507L10.9782 9.0023C10.9296 9.08239 10.9733 9.73308 10.9593 9.86566C10.957 9.88825 10.9601 9.98691 10.9609 10.0132C10.7499 10.0069 10.5358 10.0098 10.3243 10.0087C10.2165 10.0082 10.0979 10.0058 9.99067 10.015C9.97253 10.0166 9.95392 10.0311 9.93956 10.0423L9.93393 10.0444C9.9248 10.0564 9.90853 10.0782 9.90692 10.0928C9.8967 10.1845 9.90055 10.2945 9.90087 10.3863L9.90263 10.9496C9.72183 10.9467 9.54103 10.9455 9.3602 10.9459C9.25525 10.9458 9.0768 10.9283 8.99246 10.9829C8.94596 11.0097 8.6566 10.997 8.58339 10.997H7.82125L7.28131 10.9971C7.2197 10.9971 7.0701 11.0009 7.01303 10.9948C7.00922 10.6879 7.01565 10.374 7 10.0689L7.55244 10.0704C7.64169 10.0706 7.8172 10.0749 7.89908 10.0632C7.95324 10.0626 8.0111 10.0576 8.06546 10.054C8.07213 10.0142 8.06552 9.76399 8.06511 9.71114C8.06394 9.47709 8.06499 9.24304 8.06825 9.00901L8.75885 9.01429C8.80311 9.01426 8.97311 9.01806 9.00722 9.00758C9.01051 8.69306 9.0074 8.38161 9.01304 8.06618C9.29271 8.08601 9.65405 8.07228 9.94197 8.07588C9.9447 8.04758 9.94854 8.02318 9.95306 7.99509C9.96328 7.66774 9.95941 7.32838 9.9609 7Z" fill="#00AF00"/>
<path d="M10.0085 9.00093C10.2249 9.00313 10.4413 9.00411 10.6577 9.00394C10.7336 9.00431 10.935 9.00941 11 9C10.9532 9.07701 10.9953 9.70267 10.9819 9.83016C10.9796 9.85187 10.9826 9.94674 10.9834 9.97206C10.7802 9.966 10.5741 9.96871 10.3704 9.96772C10.2666 9.96721 10.1525 9.96493 10.0492 9.97378C10.0317 9.97527 10.0138 9.98924 10 10C10.022 9.94074 10.0074 9.13376 10.0085 9.00093Z" fill="#007700"/>
<path d="M8.00382 9.00137L8.73649 9.0064C8.78346 9.00637 8.96381 9.01 9 9C8.98698 9.28761 8.98433 9.70784 8.99664 10C8.89582 9.99273 8.79454 9.99656 8.69326 9.99681L8.22389 9.99762C8.16596 9.99776 8.0539 10.0021 8.00087 9.99816C8.00794 9.96021 8.00093 9.72153 8.00049 9.67112C7.99925 9.44786 8.00037 9.2246 8.00382 9.00137Z" fill="#00CC00"/>
<path d="M10 8C9.99926 8.09064 9.98985 8.18318 9.99032 8.27321C9.99156 8.51425 9.99013 8.75853 9.99482 8.99928C9.86859 8.99183 9.65099 8.99873 9.51707 8.99989C9.36574 9.00119 9.14413 8.99042 9 8.99801C9.00348 8.68799 9.00019 8.381 9.00615 8.07008C9.30183 8.08963 9.68386 8.07608 9.98827 8.07964C9.99115 8.05174 9.99522 8.02769 10 8Z" fill="#00CC00"/>
<path d="M9.01372 10.0046C9.32877 10.0199 9.6499 9.99988 9.96564 10.0129C9.97543 10.0133 9.99171 10.0043 10 10C9.9903 10.0129 9.97303 10.036 9.97131 10.0516C9.96046 10.1493 9.96455 10.2665 9.96489 10.3644L9.96676 10.9646C9.77472 10.9615 9.58268 10.9601 9.3906 10.9606C9.27913 10.9605 9.08958 10.9418 9 11C9.01812 10.969 9.01066 10.7669 9.01066 10.7167L9.01372 10.0046Z" fill="#007700"/>
<path d="M1.00655 7.00386C1.21277 7.0138 1.43348 7.00184 1.64089 7.00501C1.69218 7.0058 1.86586 6.99469 1.89847 7.00328L1.90762 7.01494C1.9036 7.34514 1.90031 7.72836 1.9144 8.05565C1.99283 8.06339 2.10774 8.06023 2.18932 8.06023L2.67747 8.05938C2.75466 8.05896 2.84636 8.0538 2.9214 8.057L2.92134 8.65459C2.92117 8.7285 2.91783 8.92583 2.92803 8.99416C2.93446 9.3464 2.9327 9.6875 2.93148 10.0396C3.02239 10.0344 3.12587 10.0389 3.21853 10.0394L3.62332 10.0396C3.68651 10.0401 3.77518 10.0448 3.8346 10.0415C3.88725 10.0462 3.93015 10.0494 3.98286 10.05C4.06566 10.0613 4.22131 10.0573 4.30822 10.0571L4.86277 10.0549C4.85024 10.3591 4.86455 10.679 4.84945 10.9768C4.89008 10.9778 4.96339 10.9774 5 10.9859C4.56226 10.9902 4.11799 10.9791 3.6798 10.9845C3.44619 10.9874 3.19323 10.9722 2.9635 11C2.95203 10.977 2.93644 10.9556 2.92222 10.9341C2.89215 10.9283 2.70539 10.9327 2.6573 10.9329C2.4267 10.935 2.19609 10.9357 1.96552 10.935C1.95767 10.739 1.97189 10.5167 1.96659 10.3187C1.96464 10.2451 1.97237 10.1317 1.96081 10.0625C1.94475 10.0419 1.92505 10.0198 1.90802 9.99963C1.86586 9.98919 1.80734 9.99397 1.76076 9.9935C1.53388 9.99116 1.30027 10.0073 1.07447 9.99301C1.0013 9.98837 1.05716 9.86469 1.05702 9.81989C1.05623 9.56513 1.06404 9.30715 1.05498 9.05244C1.05437 9.03559 1.04093 9.01084 1.03277 8.99616C1.0222 8.97868 1.01128 8.96141 1 8.94444C1.01524 8.91213 1.00753 7.18955 1.00655 7.00386Z" fill="#00AF00"/>
<path d="M2.00064 8C2.07797 8.00822 2.19126 8.00486 2.27169 8.00486L2.75297 8.00395C2.82908 8.00352 2.91948 7.99804 2.99346 8.00143L2.99341 8.63599C2.99324 8.71447 2.98994 8.92401 3 8.99658C2.9627 8.99443 2.92066 8.99384 2.8833 8.99558C2.59253 9.00921 2.29435 8.98633 2.00477 8.993C1.99639 8.66027 2.00187 8.33263 2.00064 8Z" fill="#00CC00"/>
<path d="M1 9.00806C1.06524 9.01302 1.16766 9.00256 1.24018 9.00464C1.47805 9.01145 1.76507 8.99192 1.99824 9.00409C2.00307 9.32475 1.99601 9.6472 1.99981 9.96809C1.99994 9.98003 1.9939 9.9907 1.98633 10C1.93882 9.98968 1.87288 9.99441 1.82038 9.99394C1.56471 9.99163 1.30145 10.0076 1.047 9.99345C0.964545 9.98887 1.02749 9.86661 1.02734 9.82233C1.02644 9.57049 1.03524 9.31548 1.02504 9.0637C1.02435 9.04704 1.0092 9.02258 1 9.00806Z" fill="#007700"/>
<path d="M2 10.0315C2.00266 10.0306 2.00533 10.0298 2.00796 10.0289C2.02652 10.0225 2.01057 10.0285 2.02602 10.0198C2.06699 9.99669 2.91237 9.99565 3 10.0072L2.99933 10.6497C2.99933 10.7208 3.00225 10.9397 2.99298 10.9987C2.96192 10.9923 2.76902 10.9972 2.71936 10.9974C2.48118 10.9997 2.24301 11.0005 2.00486 10.9997C1.99675 10.7822 2.01144 10.5355 2.00597 10.3158C2.00395 10.2341 2.01194 10.1082 2 10.0315Z" fill="#007700"/>
<path d="M0.993704 3C0.98209 3.04594 0.985771 3.51323 0.986629 3.59939C0.991337 4.07151 0.979491 4.55101 0.986829 5.0222C1.27083 5.05765 1.70447 5.01017 1.99194 5.04121C2.00444 5.29592 1.99865 5.58971 1.99874 5.84723C2.00055 6.23507 1.99846 6.62287 1.99247 7.01065L1.98225 6.99862C1.94581 6.98976 1.75179 7.00122 1.69449 7.0004C1.46279 6.99714 1.21622 7.00947 0.985847 6.99922C0.986939 7.19065 0.995553 8.96642 0.978525 8.99973C0.928338 8.98788 0.821324 8.99402 0.765606 8.99447L0.345134 8.99701C0.269815 8.99779 0.0608116 9.012 0.0076135 8.9708C-0.00248796 8.84312 0.00254851 8.70035 0.00258017 8.57067L0.0026688 7.89424L0.00276372 5.77101L0.00275116 3.93914L0.00224144 3.39696C0.0016558 3.29747 -0.00399166 3.156 0.00525509 3.05981L0.0504474 3.02149C0.0914547 3.02741 0.137299 3.02916 0.178886 3.02904C0.424809 3.02844 0.671923 3.03608 0.917556 3.02647C0.938272 3.02566 0.974926 3.00861 0.993704 3Z" fill="#007700"/>
<path d="M1.00713 5C1.28544 5.03566 1.71039 4.9879 1.9921 5.01912C2.00435 5.27531 1.99867 5.5708 1.99877 5.82982C2.00054 6.21991 1.99849 6.60997 1.99262 7L1.9826 6.9879C1.9469 6.979 1.75677 6.99052 1.70062 6.98969C1.47355 6.98641 1.23193 6.99881 1.00617 6.98851C1.0004 6.66535 0.998678 6.34217 1.001 6.01898C0.998616 5.67929 1.00066 5.3396 1.00713 5Z" fill="#00CC00"/>
<path d="M2.97921 1.01178C3.65272 0.999253 4.3264 0.996716 5 1.00417C4.97357 1.00666 4.94064 1.00626 4.91958 1.02055C4.90911 1.06223 4.91958 1.26281 4.92019 1.31925C4.92275 1.55844 4.91612 1.80245 4.92821 2.04082C4.88847 2.04117 4.80843 2.03979 4.77248 2.04528C4.47163 2.04681 4.18184 2.04458 3.8809 2.05456C3.59059 2.04558 3.26153 2.05949 2.96406 2.05488C2.95915 2.3699 2.97064 2.68048 2.95543 2.9947C2.61658 3.00478 2.27355 2.99379 1.93288 3.00081C1.92728 3.22247 1.92131 3.44131 1.92552 3.66347C1.92705 3.7449 1.92128 3.86228 1.92668 3.93963C1.91395 4.25573 1.90994 4.68058 1.91843 5C1.65639 4.96984 1.26112 5.01597 1.00225 4.98153C0.995558 4.52367 1.00636 4.05774 1.00207 3.59898C1.00128 3.51526 0.997927 3.06119 1.00851 3.01655L1.01485 3.00918C1.02541 2.9915 1.04584 2.95846 1.04818 2.93811C1.06331 2.80608 1.05117 2.66183 1.053 2.52813C1.05237 2.43368 1.05554 2.33704 1.05384 2.24283C1.05272 2.18069 1.00862 2.15846 1.06115 2.10739C1.10937 2.06052 1.12536 2.10631 1.18327 2.10554C1.33598 2.10463 1.4887 2.10501 1.64142 2.10672C1.73973 2.10686 1.84611 2.12061 1.93378 2.0743L1.93753 2.06977C1.99804 1.97677 1.97882 1.78991 1.97868 1.67764L1.97712 1.04937C2.19922 1.04064 2.44166 1.05353 2.6654 1.04943C2.73829 1.0481 2.88889 1.06067 2.9492 1.04522L2.97921 1.01178Z" fill="#00AF00"/>
<path d="M2.98707 1C2.9913 1.00692 2.99552 1.01385 2.99974 1.02078C3.00098 1.14 2.99738 1.25936 2.99645 1.37857L2.9971 1.98429C2.70939 1.98561 2.42048 1.98375 2.13272 1.98639C2.0808 1.98684 2.04479 1.99733 2 2C2.05904 1.90922 2.04029 1.72684 2.04015 1.61726L2.03863 1.00405C2.25533 0.995528 2.49188 1.00811 2.71018 1.00411C2.7813 1.0028 2.92823 1.01508 2.98707 1Z" fill="#007700"/>
<path d="M1 3C1.0115 2.98109 1.03373 2.94575 1.03627 2.92398C1.05274 2.78275 1.03953 2.62846 1.04152 2.48544C1.04083 2.38442 1.04428 2.28104 1.04243 2.18027C1.04121 2.11381 0.99322 2.09003 1.05039 2.0354C1.10286 1.98527 1.12026 2.03424 1.18328 2.03342C1.34947 2.03245 1.51565 2.03286 1.68184 2.03468C1.78883 2.03484 1.9046 2.04954 2 2C1.99099 2.32939 2.00207 2.65855 1.99548 2.98678C1.71862 2.99221 1.44029 2.9864 1.16323 2.98882C1.10092 2.98935 1.05313 2.99843 1 3Z" fill="#007700"/>
<path d="M5.22476 1.00356C5.50054 1.00022 5.77633 0.999248 6.05211 1.00064C6.36276 0.999231 6.67343 1.00015 6.98405 1.00338C7.00908 1.07115 6.99847 1.88832 6.99326 1.99502C6.61437 1.99916 6.23548 2.00039 5.85657 1.99868C5.57868 1.99851 5.2757 2.0038 5 1.99432C5.03552 1.9891 5.11459 1.99041 5.15384 1.99007C5.1419 1.76323 5.14845 1.53102 5.14592 1.3034C5.14532 1.24968 5.13497 1.0588 5.14532 1.01914C5.16613 1.00554 5.19865 1.00593 5.22476 1.00356Z" fill="#00CC00"/>
<path d="M3.06138 2.00362C3.36497 2.0085 3.70082 1.99376 3.99711 2.00328C3.99405 2.09781 3.99429 2.19999 3.99691 2.29449C4.00336 2.52688 3.99134 2.76497 4 2.99655L3.36 2.99948C3.28034 2.9996 3.12782 3.00514 3.05454 2.99854C3.04624 3.30198 3.03985 3.68956 3.04913 3.99375C2.82327 3.99776 2.59737 3.99904 2.37149 3.99764C2.28911 3.99726 2.07189 3.99073 2.00263 4C1.99712 3.91807 2.00301 3.79374 2.00145 3.70748C1.99715 3.47216 2.00325 3.24036 2.00896 3.00557C2.35664 2.99814 2.70674 3.00977 3.05257 2.9991C3.06809 2.66627 3.05637 2.33729 3.06138 2.00362Z" fill="#00CC00"/>
<path d="M4 10.0031C4.20023 9.99993 4.40935 10.0043 4.61113 10.0034L6.49364 10.0011L7.45746 10.0044C7.61516 10.0042 7.84745 9.99557 8 10.003C7.91147 10.0155 7.72168 10.0109 7.62519 10.0107L7.02783 10.0091C7.04475 10.3336 7.0378 10.6673 7.04192 10.9936C6.49351 11.0076 5.94101 10.9935 5.39218 10.9985C5.3093 10.9992 5.22217 10.9999 5.13939 10.9974C5.09838 10.9883 5.01626 10.9888 4.97074 10.9877C4.98766 10.6714 4.97163 10.3314 4.98566 10.0083L4.36446 10.0106C4.26711 10.0109 4.09275 10.0151 4 10.0031Z" fill="#00CC00"/>
<path d="M3 9C3.07088 9.00993 3.21621 9.0038 3.29321 9.00562C3.52495 9.01113 3.77028 8.99913 4 9.00215L3.99875 9.66225C3.99844 9.76425 3.99407 9.89841 3.99856 9.99887C3.93311 10.0021 3.83545 9.99753 3.76585 9.99708L3.31998 9.99689C3.21792 9.99641 3.10394 9.99213 3.00381 9.99705C3.00515 9.66127 3.00709 9.33595 3 9Z" fill="#00CC00"/>
<path d="M5.0654 4C5.32476 4.0116 5.6023 4.00704 5.86318 4.00713L6.93724 4.00535C6.94415 4.35709 6.93786 4.71087 6.94026 5.06314C6.99358 5.05968 7.05695 5.06205 7.11081 5.06338C7.40507 5.07063 7.70316 5.05752 7.9968 5.06359C7.99247 5.25545 7.9995 5.47719 7.99965 5.67304C8.00066 6.09366 7.9995 6.51427 7.99618 6.93485C7.6443 6.94051 7.2944 6.9361 6.94287 6.93823C6.93359 7.27952 6.93911 7.6473 6.93828 7.9919C6.32451 8.01066 5.68059 7.99013 5.06324 7.99605C5.06849 7.65079 5.05992 7.28195 5.05938 6.93536C4.96149 6.94264 4.80892 6.93834 4.70789 6.93849L4.00303 6.93749C4.00578 6.31043 3.9936 5.68769 4.00489 5.05817C4.35517 5.07066 4.72444 5.05119 5.06152 5.06548C5.05947 4.71034 5.06078 4.35514 5.0654 4Z" fill="#00CC00"/>
<path d="M5.00308 5C5.19701 5.01086 5.46231 5.00452 5.65882 5.00452L6.99539 5.00405C6.99923 5.19378 7.0064 6.9614 6.98771 6.99636L5.66731 6.9989C5.51359 6.99884 5.1372 6.98716 5.00116 7L5 5.55628C5.00009 5.38002 5.00765 5.17137 5.00308 5Z" fill="#00AF00"/>
<path d="M11.0801 3C11.1544 3.04689 11.3375 3.01224 11.4256 3.0225C11.5561 3.03769 11.8937 2.99068 11.9969 3.02884C12.003 3.57567 11.9982 4.13136 11.9982 4.67875L11.9991 8.96228C11.7049 8.95711 11.4107 8.9566 11.1165 8.96075C11.1005 8.97272 11.0796 8.98755 11.0647 9C11.0835 8.95128 11.0723 7.17664 11.0718 6.98671C10.8497 6.96833 10.6598 6.97395 10.4384 6.97398C10.3145 6.97398 10.1262 6.97636 10.0079 6.95158C9.99605 6.84156 10.0011 6.63063 10.0009 6.51601L10.0007 5.72647L10.0008 5.25294C10.0009 5.20223 9.99792 5.06731 10.0056 5.02632C10.1024 5.00701 10.2356 5.01744 10.3372 5.01498C10.5701 5.00935 10.8414 5.02653 11.0719 5.00734C11.0797 4.85912 11.0694 4.65662 11.0718 4.50229C11.0793 4.00925 11.0578 3.50372 11.0796 3.01209L11.0801 3Z" fill="#007700"/>
<path d="M10.0052 5.01918C10.095 4.99967 10.2187 5.01021 10.3129 5.00772C10.529 5.00204 10.7807 5.01939 10.9946 5C10.9996 5.34915 11.0011 5.69839 10.9992 6.04761C11.0011 6.36506 10.9996 6.68258 10.9945 7C10.7884 6.98143 10.6122 6.98711 10.4068 6.98714C10.2918 6.98714 10.1171 6.98955 10.0073 6.9645C9.99633 6.85334 10.001 6.64021 10.0009 6.5244L10.0006 5.72663L10.0008 5.24817C10.0008 5.19693 9.99807 5.0606 10.0052 5.01918Z" fill="#00CC00"/>
<path d="M3.04312 0.903142C3.03227 0.866936 3.02185 0.83154 3.01793 0.793591C3.00705 0.688623 2.99843 0.163207 3.01603 0.0758702C3.0226 0.043375 3.03926 0.0218836 3.06771 0.00639458C3.09043 -0.00599277 3.10884 0.00234624 3.13249 0.00860686C3.24205 0.0376084 3.51893 0.0196649 3.65027 0.0196426L4.79125 0.0195757L7.40214 0.0195948C7.90329 0.0196139 8.45959 0.033949 8.95381 0.00683453C9.00564 0.0386572 8.98903 0.249704 8.98879 0.313675L8.98671 0.776514C8.98635 0.824996 8.97933 0.938264 9 0.975442C8.93302 0.999904 8.38233 0.991744 8.26873 0.99175L6.9699 0.991546C6.64155 0.987852 6.31315 0.986809 5.98477 0.988419C5.69324 0.986828 5.40172 0.987934 5.11019 0.991744C4.40679 0.983647 3.70331 0.986401 3 1L3.04312 0.903142Z" fill="#007700"/>
<path d="M6.97151 11.0129C7.02999 11.0195 7.1833 11.0154 7.24644 11.0154L7.79976 11.0153H8.58079C8.65582 11.0153 8.95235 11.029 9 11C8.99856 11.0021 8.99711 11.0041 8.99573 11.0062C8.91146 11.1329 9.02759 11.9376 8.93577 11.9989C8.72173 11.9631 8.51331 11.9763 8.29473 11.9763L7.36774 11.9762L4.10827 11.976C3.80858 11.976 3.50886 11.9764 3.2092 11.9761C3.09238 11.976 3.08814 12.0516 3.00291 11.9345C2.99488 11.7231 3.00631 11.5065 3.00346 11.2948C3.00222 11.2041 3.04822 11.1109 3.00637 11.0321C3.25026 11.002 3.51881 11.0185 3.76682 11.0153C4.23203 11.0095 4.70368 11.0215 5.1684 11.0168C5.24686 11.0194 5.32944 11.0187 5.40799 11.0179C5.92813 11.0129 6.45176 11.0272 6.97151 11.0129Z" fill="#007700"/>
</svg>