<svg width="57" height="57" viewBox="0 0 57 57" fill="none" xmlns="http://www.w3.org/2000/svg">
<g clip-path="url(#clip0_191_26)">
<rect width="57" height="57" rx="19" fill="white"/>
<path d="M57 0H0V57H57V0Z" fill="#151515"/>
<path d="M28.4924 12.35C28.6041 12.4391 31.6631 18.1939 31.9963 18.8119L44.6497 42.2719C42.6668 42.3091 40.5252 42.2768 38.5295 42.2768C38.4606 41.9805 38.2502 41.4875 38.1174 41.2064C37.4217 39.7342 36.466 38.6261 35.1018 37.5756C30.5045 34.1136 23.5731 34.0074 18.0862 32.2123C17.0804 31.8832 14.8429 31.4835 14.842 30.8373C14.842 29.4248 19.1279 26.261 19.3557 26.4301C19.4069 26.6843 15.1977 30.464 15.9397 30.7182C16.7636 30.9981 17.3792 31.2313 18.259 31.2875L28.4924 12.35ZM28.511 22.06C27.5797 23.8172 26.6606 25.5795 25.7532 27.3461L24.5706 29.6195C24.3442 30.0539 24.0848 30.5264 23.8762 30.9643C23.4208 30.7998 21.0266 31.2074 20.5754 31.2045C21.3887 31.2045 24.6367 31.2615 25.4221 31.2797C26.4317 31.3031 27.4075 31.3659 28.302 31.5277C31.8803 32.256 34.2251 33.5696 35.5833 34.3373C33.6082 30.9598 33.2372 30.2844 32.6936 29.4242L30.3977 25.4936L30.0588 24.9096C29.9957 24.7879 28.5818 22.0922 28.511 22.06Z" fill="url(#paint0_linear_191_26)"/>
<path d="M17.4396 32.7415C17.5204 32.7868 17.8682 33.1318 17.9781 33.2176C18.2946 33.4641 18.6013 33.6801 18.946 33.8966C19.4588 34.2135 19.988 34.5099 20.5322 34.7851C21.375 35.2191 22.2334 35.6284 23.0424 36.1338C23.4192 36.3692 24.2775 36.9928 24.1393 37.4923C24.102 37.6273 22.7695 38.715 22.6089 38.6486C23.4222 37.7585 23.387 37.4407 23.5036 37.3539C23.1552 37.0315 21.7947 36.3105 21.2456 36.0854C20.5292 37.5275 19.7181 39.0242 18.9686 40.4588L18.0124 42.2899L12.28 42.2886L17.4396 32.7415Z" fill="url(#paint1_linear_191_26)"/>
</g>
<rect x="0.5" y="0.5" width="56" height="56" rx="18.5" stroke="#626262"/>
<defs>
<linearGradient id="paint0_linear_191_26" x1="29.7663" y1="12.35" x2="45.0942" y2="42.9188" gradientUnits="userSpaceOnUse">
<stop stop-color="#FEFEFE"/>
<stop offset="1" stop-color="#C1C1C1" stop-opacity="0.77"/>
</linearGradient>
<linearGradient id="paint1_linear_191_26" x1="18.2171" y1="32.7415" x2="18.2171" y2="42.2899" gradientUnits="userSpaceOnUse">
<stop stop-color="#FEFEFE"/>
<stop offset="1" stop-color="#C1C1C1" stop-opacity="0.79"/>
</linearGradient>
<clipPath id="clip0_191_26">
<rect width="57" height="57" rx="19" fill="white"/>
</clipPath>
</defs>
</svg>
