<svg width="2019" height="643" viewBox="0 0 2019 643" fill="none" xmlns="http://www.w3.org/2000/svg">
<path d="M1.27405e-06 636.3L142.2 6.29976H261.9L398.7 636.3H324.9L280.8 450.9H117L76.5 636.3H1.27405e-06ZM130.5 389.7H267.3L202.5 65.6998H196.2L130.5 389.7ZM444.059 636.3L586.259 305.1L462.059 6.29976H541.259L631.259 223.2L723.059 6.29976H802.259L671.759 305.1L817.559 636.3H737.459L631.259 384.3L523.259 636.3H444.059ZM909.907 636.3V6.29976H989.107V636.3H909.907ZM1265.74 642.6C1209.94 642.6 1167.34 628.5 1137.94 600.3C1108.54 571.5 1093.84 531.6 1093.84 480.6V162C1093.84 111 1108.54 71.3998 1137.94 43.1998C1167.34 14.3998 1209.94 -0.000210762 1265.74 -0.000210762C1322.14 -0.000210762 1365.04 14.3998 1394.44 43.1998C1423.84 71.3998 1438.54 111 1438.54 162V480.6C1438.54 531.6 1423.84 571.5 1394.44 600.3C1365.04 628.5 1322.14 642.6 1265.74 642.6ZM1265.74 583.2C1292.14 583.2 1314.34 575.7 1332.34 560.7C1350.34 545.1 1359.34 523.5 1359.34 495.9V146.7C1359.34 119.1 1350.34 97.7998 1332.34 82.7998C1314.34 67.1998 1292.14 59.3998 1265.74 59.3998C1239.34 59.3998 1217.14 67.1998 1199.14 82.7998C1181.74 97.7998 1173.04 119.1 1173.04 146.7V495.9C1173.04 523.5 1181.74 545.1 1199.14 560.7C1217.14 575.7 1239.34 583.2 1265.74 583.2ZM1533.72 636.3V6.29976H1653.42L1774.02 378.9H1780.32L1903.62 6.29976H2018.82V636.3H1939.62V100.8L1819.02 468.9H1733.52L1612.92 99.8998V636.3H1533.72Z" fill="url(#paint0_linear_219_15)" fill-opacity="0.21"/>
<defs>
<linearGradient id="paint0_linear_219_15" x1="1029" y1="573.394" x2="1029" y2="-111.183" gradientUnits="userSpaceOnUse">
<stop stop-color="#E6FFE1" stop-opacity="0.1"/>
<stop offset="0.461638" stop-color="#C4CDBC"/>
<stop offset="1" stop-color="#998F8F"/>
</linearGradient>
</defs>
</svg>
