<svg width="568" height="185" viewBox="0 0 568 185" fill="none" xmlns="http://www.w3.org/2000/svg">
<mask id="path-1-outside-1_157_10" maskUnits="userSpaceOnUse" x="-0.247375" y="-0.25" width="568" height="185" fill="black">
<rect fill="white" x="-0.247375" y="-0.25" width="568" height="185"/>
<path d="M3.75262 179.75L43.2526 4.74999H76.5026L114.503 179.75H94.0026L81.7526 128.25H36.2526L25.0026 179.75H3.75262ZM40.0026 111.25H78.0026L60.0026 21.25H58.2526L40.0026 111.25ZM127.102 179.75L166.602 87.75L132.102 4.74999H154.102L179.102 65L204.602 4.74999H226.602L190.352 87.75L230.852 179.75H208.602L179.102 109.75L149.102 179.75H127.102ZM256.505 179.75V4.74999H278.505V179.75H256.505ZM355.348 181.5C339.848 181.5 328.015 177.583 319.848 169.75C311.682 161.75 307.598 150.667 307.598 136.5V48C307.598 33.8333 311.682 22.8333 319.848 15C328.015 6.99999 339.848 3 355.348 3C371.015 3 382.932 6.99999 391.098 15C399.265 22.8333 403.348 33.8333 403.348 48V136.5C403.348 150.667 399.265 161.75 391.098 169.75C382.932 177.583 371.015 181.5 355.348 181.5ZM355.348 165C362.682 165 368.848 162.917 373.848 158.75C378.848 154.417 381.348 148.417 381.348 140.75V43.75C381.348 36.0833 378.848 30.1667 373.848 26C368.848 21.6667 362.682 19.5 355.348 19.5C348.015 19.5 341.848 21.6667 336.848 26C332.015 30.1667 329.598 36.0833 329.598 43.75V140.75C329.598 148.417 332.015 154.417 336.848 158.75C341.848 162.917 348.015 165 355.348 165ZM429.786 179.75V4.74999H463.036L496.536 108.25H498.286L532.536 4.74999H564.536V179.75H542.536V31L509.036 133.25H485.286L451.786 30.75V179.75H429.786Z"/>
</mask>
<path d="M3.75262 179.75L0.826244 179.089L1.09621e-05 182.75H3.75262V179.75ZM43.2526 4.74999V1.74999H40.8543L40.3262 4.08946L43.2526 4.74999ZM76.5026 4.74999L79.4343 4.11339L78.9211 1.74999H76.5026V4.74999ZM114.503 179.75V182.75H118.224L117.434 179.113L114.503 179.75ZM94.0026 179.75L91.0841 180.444L91.6325 182.75H94.0026V179.75ZM81.7526 128.25L84.6712 127.556L84.1227 125.25H81.7526V128.25ZM36.2526 128.25V125.25H33.8372L33.3217 127.61L36.2526 128.25ZM25.0026 179.75V182.75H27.418L27.9335 180.39L25.0026 179.75ZM40.0026 111.25L37.0625 110.654L36.3332 114.25H40.0026V111.25ZM78.0026 111.25V114.25H81.662L80.9444 110.662L78.0026 111.25ZM60.0026 21.25L62.9444 20.6617L62.462 18.25H60.0026V21.25ZM58.2526 21.25V18.25H55.7999L55.3125 20.6538L58.2526 21.25ZM3.75262 179.75L6.67901 180.411L46.179 5.41051L43.2526 4.74999L40.3262 4.08946L0.826244 179.089L3.75262 179.75ZM43.2526 4.74999V7.74999H76.5026V4.74999V1.74999H43.2526V4.74999ZM76.5026 4.74999L73.5709 5.38658L111.571 180.387L114.503 179.75L117.434 179.113L79.4343 4.11339L76.5026 4.74999ZM114.503 179.75V176.75H94.0026V179.75V182.75H114.503V179.75ZM94.0026 179.75L96.9212 179.056L84.6712 127.556L81.7526 128.25L78.8341 128.944L91.0841 180.444L94.0026 179.75ZM81.7526 128.25V125.25H36.2526V128.25V131.25H81.7526V128.25ZM36.2526 128.25L33.3217 127.61L22.0717 179.11L25.0026 179.75L27.9335 180.39L39.1835 128.89L36.2526 128.25ZM25.0026 179.75V176.75H3.75262V179.75V182.75H25.0026V179.75ZM40.0026 111.25V114.25H78.0026V111.25V108.25H40.0026V111.25ZM78.0026 111.25L80.9444 110.662L62.9444 20.6617L60.0026 21.25L57.0609 21.8383L75.0609 111.838L78.0026 111.25ZM60.0026 21.25V18.25H58.2526V21.25V24.25H60.0026V21.25ZM58.2526 21.25L55.3125 20.6538L37.0625 110.654L40.0026 111.25L42.9428 111.846L61.1928 21.8462L58.2526 21.25ZM127.102 179.75L124.346 178.566L122.549 182.75H127.102V179.75ZM166.602 87.75L169.359 88.9336L169.859 87.7689L169.372 86.5985L166.602 87.75ZM132.102 4.74999V1.74999H127.606L129.332 5.90146L132.102 4.74999ZM154.102 4.74999L156.873 3.60023L156.105 1.74999H154.102V4.74999ZM179.102 65L176.331 66.1498L179.075 72.7617L181.865 66.1693L179.102 65ZM204.602 4.74999V1.74999H202.614L201.839 3.58069L204.602 4.74999ZM226.602 4.74999L229.351 5.95071L231.186 1.74999H226.602V4.74999ZM190.352 87.75L187.603 86.5493L187.077 87.7548L187.607 88.9587L190.352 87.75ZM230.852 179.75V182.75H235.451L233.598 178.541L230.852 179.75ZM208.602 179.75L205.838 180.915L206.611 182.75H208.602V179.75ZM179.102 109.75L181.867 108.585L179.125 102.08L176.345 108.568L179.102 109.75ZM149.102 179.75V182.75H151.08L151.86 180.932L149.102 179.75ZM127.102 179.75L129.859 180.934L169.359 88.9336L166.602 87.75L163.846 86.5664L124.346 178.566L127.102 179.75ZM166.602 87.75L169.372 86.5985L134.872 3.59851L132.102 4.74999L129.332 5.90146L163.832 88.9015L166.602 87.75ZM132.102 4.74999V7.74999H154.102V4.74999V1.74999H132.102V4.74999ZM154.102 4.74999L151.331 5.89975L176.331 66.1498L179.102 65L181.873 63.8502L156.873 3.60023L154.102 4.74999ZM179.102 65L181.865 66.1693L207.365 5.91928L204.602 4.74999L201.839 3.58069L176.339 63.8307L179.102 65ZM204.602 4.74999V7.74999H226.602V4.74999V1.74999H204.602V4.74999ZM226.602 4.74999L223.853 3.54927L187.603 86.5493L190.352 87.75L193.101 88.9507L229.351 5.95071L226.602 4.74999ZM190.352 87.75L187.607 88.9587L228.107 180.959L230.852 179.75L233.598 178.541L193.098 86.5413L190.352 87.75ZM230.852 179.75V176.75H208.602V179.75V182.75H230.852V179.75ZM208.602 179.75L211.367 178.585L181.867 108.585L179.102 109.75L176.338 110.915L205.838 180.915L208.602 179.75ZM179.102 109.75L176.345 108.568L146.345 178.568L149.102 179.75L151.86 180.932L181.86 110.932L179.102 109.75ZM149.102 179.75V176.75H127.102V179.75V182.75H149.102V179.75ZM256.505 179.75H253.505V182.75H256.505V179.75ZM256.505 4.74999V1.74999H253.505V4.74999H256.505ZM278.505 4.74999H281.505V1.74999H278.505V4.74999ZM278.505 179.75V182.75H281.505V179.75H278.505ZM256.505 179.75H259.505V4.74999H256.505H253.505V179.75H256.505ZM256.505 4.74999V7.74999H278.505V4.74999V1.74999H256.505V4.74999ZM278.505 4.74999H275.505V179.75H278.505H281.505V4.74999H278.505ZM278.505 179.75V176.75H256.505V179.75V182.75H278.505V179.75ZM319.848 169.75L317.749 171.893L317.76 171.904L317.772 171.915L319.848 169.75ZM319.848 15L321.925 17.165L321.936 17.1541L321.948 17.1431L319.848 15ZM391.098 15L388.999 17.1431L389.01 17.1541L389.022 17.165L391.098 15ZM391.098 169.75L393.175 171.915L393.186 171.904L393.198 171.893L391.098 169.75ZM373.848 158.75L375.769 161.055L375.791 161.036L375.813 161.017L373.848 158.75ZM373.848 26L371.884 28.2671L371.905 28.2861L371.928 28.3047L373.848 26ZM336.848 26L338.807 28.2722L338.813 28.2671L336.848 26ZM336.848 158.75L334.846 160.984L334.886 161.02L334.928 161.055L336.848 158.75ZM355.348 181.5V178.5C340.331 178.5 329.353 174.71 321.925 167.585L319.848 169.75L317.772 171.915C326.677 180.456 339.365 184.5 355.348 184.5V181.5ZM319.848 169.75L321.948 167.607C314.489 160.3 310.598 150.065 310.598 136.5H307.598H304.598C304.598 151.268 308.875 163.2 317.749 171.893L319.848 169.75ZM307.598 136.5H310.598V48H307.598H304.598V136.5H307.598ZM307.598 48H310.598C310.598 34.4319 314.489 24.2972 321.925 17.165L319.848 15L317.772 12.8349C308.874 21.3695 304.598 33.2348 304.598 48H307.598ZM319.848 15L321.948 17.1431C329.378 9.86436 340.347 6 355.348 6V3V-4.29153e-06C339.349 -4.29153e-06 326.652 4.13563 317.749 12.8569L319.848 15ZM355.348 3V6C370.527 6 381.574 9.86978 388.999 17.1431L391.098 15L393.198 12.8569C384.289 4.13021 371.503 -4.29153e-06 355.348 -4.29153e-06V3ZM391.098 15L389.022 17.165C396.457 24.2972 400.348 34.4319 400.348 48H403.348H406.348C406.348 33.2348 402.073 21.3695 393.175 12.8349L391.098 15ZM403.348 48H400.348V136.5H403.348H406.348V48H403.348ZM403.348 136.5H400.348C400.348 150.065 396.458 160.3 388.999 167.607L391.098 169.75L393.198 171.893C402.072 163.2 406.348 151.268 406.348 136.5H403.348ZM391.098 169.75L389.022 167.585C381.599 174.705 370.542 178.5 355.348 178.5V181.5V184.5C371.488 184.5 384.265 180.462 393.175 171.915L391.098 169.75ZM355.348 165V168C363.289 168 370.161 165.728 375.769 161.055L373.848 158.75L371.928 156.445C367.535 160.106 362.074 162 355.348 162V165ZM373.848 158.75L375.813 161.017C381.578 156.021 384.348 149.134 384.348 140.75H381.348H378.348C378.348 147.7 376.119 152.813 371.884 156.483L373.848 158.75ZM381.348 140.75H384.348V43.75H381.348H378.348V140.75H381.348ZM381.348 43.75H384.348C384.348 35.3688 381.577 28.5357 375.769 23.6953L373.848 26L371.928 28.3047C376.119 31.7976 378.348 36.7979 378.348 43.75H381.348ZM373.848 26L375.813 23.7329C370.207 18.8747 363.32 16.5 355.348 16.5V19.5V22.5C362.044 22.5 367.489 24.4587 371.884 28.2671L373.848 26ZM355.348 19.5V16.5C347.377 16.5 340.489 18.8747 334.884 23.7329L336.848 26L338.813 28.2671C343.207 24.4587 348.653 22.5 355.348 22.5V19.5ZM336.848 26L334.89 23.7278C329.262 28.5792 326.598 35.4032 326.598 43.75H329.598H332.598C332.598 36.7634 334.768 31.7542 338.807 28.2722L336.848 26ZM329.598 43.75H326.598V140.75H329.598H332.598V43.75H329.598ZM329.598 140.75H326.598C326.598 149.1 329.262 155.978 334.846 160.984L336.848 158.75L338.851 156.516C334.768 152.856 332.598 147.733 332.598 140.75H329.598ZM336.848 158.75L334.928 161.055C340.535 165.728 347.408 168 355.348 168V165V162C348.622 162 343.161 160.106 338.769 156.445L336.848 158.75ZM429.786 179.75H426.786V182.75H429.786V179.75ZM429.786 4.74999V1.74999H426.786V4.74999H429.786ZM463.036 4.74999L465.89 3.82616L465.218 1.74999H463.036V4.74999ZM496.536 108.25L493.682 109.174L494.354 111.25H496.536V108.25ZM498.286 108.25V111.25H500.453L501.134 109.192L498.286 108.25ZM532.536 4.74999V1.74999H530.369L529.688 3.8075L532.536 4.74999ZM564.536 4.74999H567.536V1.74999H564.536V4.74999ZM564.536 179.75V182.75H567.536V179.75H564.536ZM542.536 179.75H539.536V182.75H542.536V179.75ZM542.536 31H545.536L539.685 30.066L542.536 31ZM509.036 133.25V136.25H511.21L511.887 134.184L509.036 133.25ZM485.286 133.25L482.434 134.182L483.11 136.25H485.286V133.25ZM451.786 30.75L454.637 29.818L448.786 30.75H451.786ZM451.786 179.75V182.75H454.786V179.75H451.786ZM429.786 179.75H432.786V4.74999H429.786H426.786V179.75H429.786ZM429.786 4.74999V7.74999H463.036V4.74999V1.74999H429.786V4.74999ZM463.036 4.74999L460.182 5.67382L493.682 109.174L496.536 108.25L499.39 107.326L465.89 3.82616L463.036 4.74999ZM496.536 108.25V111.25H498.286V108.25V105.25H496.536V108.25ZM498.286 108.25L501.134 109.192L535.384 5.69248L532.536 4.74999L529.688 3.8075L495.438 107.308L498.286 108.25ZM532.536 4.74999V7.74999H564.536V4.74999V1.74999H532.536V4.74999ZM564.536 4.74999H561.536V179.75H564.536H567.536V4.74999H564.536ZM564.536 179.75V176.75H542.536V179.75V182.75H564.536V179.75ZM542.536 179.75H545.536V31H542.536H539.536V179.75H542.536ZM542.536 31L539.685 30.066L506.185 132.316L509.036 133.25L511.887 134.184L545.387 31.934L542.536 31ZM509.036 133.25V130.25H485.286V133.25V136.25H509.036V133.25ZM485.286 133.25L488.137 132.318L454.637 29.818L451.786 30.75L448.934 31.682L482.434 134.182L485.286 133.25ZM451.786 30.75H448.786V179.75H451.786H454.786V30.75H451.786ZM451.786 179.75V176.75H429.786V179.75V182.75H451.786V179.75Z" fill="url(#paint0_linear_157_10)" fill-opacity="0.46" mask="url(#path-1-outside-1_157_10)"/>
<defs>
<linearGradient id="paint0_linear_157_10" x1="567.888" y1="86.3146" x2="29.1818" y2="80.8943" gradientUnits="userSpaceOnUse">
<stop stop-color="white"/>
<stop offset="0.712215" stop-color="#B6B6B6" stop-opacity="0.32"/>
<stop offset="1" stop-color="#999999" stop-opacity="0"/>
</linearGradient>
</defs>
</svg>
