<svg width="178" height="426" viewBox="0 0 178 426" fill="none" xmlns="http://www.w3.org/2000/svg">
<mask id="path-1-outside-1_92_3172" maskUnits="userSpaceOnUse" x="-0.399902" y="0" width="178" height="426" fill="black">
<rect fill="white" x="-0.399902" width="178" height="426"/>
<path d="M147.6 283.8C147.6 261 143 241.8 133.8 226.2C124.6 210.6 111.4 194 94.2001 176.4C79.4001 160.8 68.6001 147.6 61.8001 136.8C55.0001 126 51.6001 113.2 51.6001 98.4C51.6001 81.2 57.0001 67.6 67.8001 57.6C78.6001 47.6 95.4001 42.6 118.2 42.6H174.6V2.99997H106.8C74.4001 2.99997 49.0001 11.2 30.6001 27.6C12.2001 43.6 3.00009 65.6 3.00009 93.6C3.00009 114.4 7.20009 131.8 15.6001 145.8C24.0001 159.8 36.6001 175.4 53.4001 192.6C68.6001 208.2 80.2001 222.4 88.2001 235.2C95.8001 247.6 99.6001 262.8 99.6001 280.8V318.6H147.6V283.8ZM147.6 423L147.6 369H99.6001V423H147.6Z"/>
</mask>
<path d="M147.6 283.8C147.6 261 143 241.8 133.8 226.2C124.6 210.6 111.4 194 94.2001 176.4C79.4001 160.8 68.6001 147.6 61.8001 136.8C55.0001 126 51.6001 113.2 51.6001 98.4C51.6001 81.2 57.0001 67.6 67.8001 57.6C78.6001 47.6 95.4001 42.6 118.2 42.6H174.6V2.99997H106.8C74.4001 2.99997 49.0001 11.2 30.6001 27.6C12.2001 43.6 3.00009 65.6 3.00009 93.6C3.00009 114.4 7.20009 131.8 15.6001 145.8C24.0001 159.8 36.6001 175.4 53.4001 192.6C68.6001 208.2 80.2001 222.4 88.2001 235.2C95.8001 247.6 99.6001 262.8 99.6001 280.8V318.6H147.6V283.8ZM147.6 423L147.6 369H99.6001V423H147.6Z" fill="url(#paint0_linear_92_3172)" fill-opacity="0.08"/>
<path d="M94.2001 176.4L92.0545 178.497L92.039 178.481L92.0237 178.465L94.2001 176.4ZM61.8001 136.8L59.2614 138.398L61.8001 136.8ZM67.8001 57.6L69.8383 59.8013L67.8001 57.6ZM174.6 42.6H177.6V45.6H174.6V42.6ZM174.6 2.99997V-3.05176e-05H177.6V2.99997H174.6ZM30.6001 27.6L32.5962 29.8395L32.5825 29.8517L32.5686 29.8638L30.6001 27.6ZM53.4001 192.6L55.5462 190.504L55.5488 190.506L53.4001 192.6ZM88.2001 235.2L90.7441 233.61L90.751 233.621L90.7579 233.632L88.2001 235.2ZM99.6001 318.6V321.6H96.6001V318.6H99.6001ZM147.6 318.6H150.6V321.6H147.6V318.6ZM147.6 423H150.6V426H147.6V423ZM147.6 369V366H150.6V369H147.6ZM99.6001 369H96.6001V366H99.6001V369ZM99.6001 423V426H96.6001V423H99.6001ZM147.6 283.8H144.6C144.6 261.399 140.082 242.757 131.216 227.724L133.8 226.2L136.384 224.676C145.919 240.843 150.6 260.601 150.6 283.8H147.6ZM133.8 226.2L131.216 227.724C122.173 212.391 109.142 195.981 92.0545 178.497L94.2001 176.4L96.3457 174.303C113.659 192.019 127.027 208.809 136.384 224.676L133.8 226.2ZM94.2001 176.4L92.0237 178.465C77.1666 162.805 66.2137 149.44 59.2614 138.398L61.8001 136.8L64.3388 135.202C70.9865 145.76 81.6336 158.795 96.3765 174.335L94.2001 176.4ZM61.8001 136.8L59.2614 138.398C52.1144 127.047 48.6001 113.674 48.6001 98.4H51.6001H54.6001C54.6001 112.726 57.8857 124.953 64.3388 135.202L61.8001 136.8ZM51.6001 98.4H48.6001C48.6001 80.5182 54.2442 66.0632 65.7619 55.3987L67.8001 57.6L69.8383 59.8013C59.756 69.1367 54.6001 81.8817 54.6001 98.4H51.6001ZM67.8001 57.6L65.7619 55.3987C77.353 44.6661 95.0445 39.6 118.2 39.6V42.6V45.6C95.7557 45.6 79.8471 50.5338 69.8383 59.8013L67.8001 57.6ZM118.2 42.6V39.6H174.6V42.6V45.6H118.2V42.6ZM174.6 42.6H171.6V2.99997H174.6H177.6V42.6H174.6ZM174.6 2.99997V5.99997H106.8V2.99997V-3.05176e-05H174.6V2.99997ZM106.8 2.99997V5.99997C74.8999 5.99997 50.2927 14.0666 32.5962 29.8395L30.6001 27.6L28.604 25.3604C47.7075 8.33338 73.9003 -3.05176e-05 106.8 -3.05176e-05V2.99997ZM30.6001 27.6L32.5686 29.8638C14.9245 45.2065 6.00009 66.3253 6.00009 93.6H3.00009H9.15527e-05C9.15527e-05 64.8746 9.47563 41.9935 28.6316 25.3362L30.6001 27.6ZM3.00009 93.6H6.00009C6.00009 114.003 10.1192 130.834 18.1726 144.257L15.6001 145.8L13.0276 147.343C4.28093 132.766 9.15527e-05 114.797 9.15527e-05 93.6H3.00009ZM15.6001 145.8L18.1726 144.257C26.4105 157.986 38.8403 173.4 55.5462 190.504L53.4001 192.6L51.254 194.696C34.3598 177.4 21.5897 161.614 13.0276 147.343L15.6001 145.8ZM53.4001 192.6L55.5488 190.506C70.8386 206.199 82.5929 220.568 90.7441 233.61L88.2001 235.2L85.6561 236.79C77.8073 224.232 66.3616 210.201 51.2514 194.694L53.4001 192.6ZM88.2001 235.2L90.7579 233.632C98.7086 246.605 102.6 262.378 102.6 280.8H99.6001H96.6001C96.6001 263.222 92.8916 248.595 85.6423 236.768L88.2001 235.2ZM99.6001 280.8H102.6V318.6H99.6001H96.6001V280.8H99.6001ZM99.6001 318.6V315.6H147.6V318.6V321.6H99.6001V318.6ZM147.6 318.6H144.6V283.8H147.6H150.6V318.6H147.6ZM147.6 423H144.6L144.6 369H147.6H150.6L150.6 423H147.6ZM147.6 369V372H99.6001V369V366H147.6V369ZM99.6001 369H102.6V423H99.6001H96.6001V369H99.6001ZM99.6001 423V420H147.6V423V426H99.6001V423Z" fill="url(#paint1_linear_92_3172)" fill-opacity="0.46" mask="url(#path-1-outside-1_92_3172)"/>
<defs>
<linearGradient id="paint0_linear_92_3172" x1="146.626" y1="98.4122" x2="-57.5288" y2="150.325" gradientUnits="userSpaceOnUse">
<stop stop-color="#D9D9D9" stop-opacity="0"/>
<stop offset="1" stop-color="white"/>
</linearGradient>
<linearGradient id="paint1_linear_92_3172" x1="21.4084" y1="180.629" x2="154.749" y2="174.822" gradientUnits="userSpaceOnUse">
<stop stop-color="white"/>
<stop offset="0.274071" stop-color="#B6B6B6" stop-opacity="0.32"/>
<stop offset="1" stop-color="#999999" stop-opacity="0"/>
</linearGradient>
</defs>
</svg>
