<svg width="82" height="91" viewBox="0 0 82 91" fill="none" xmlns="http://www.w3.org/2000/svg">
<mask id="path-1-outside-1_0_1" maskUnits="userSpaceOnUse" x="0" y="39.0432" width="19" height="44" fill="black">
<rect fill="white" y="39.0432" width="19" height="44"/>
<path d="M3.2 68.1232C3.2 65.8432 3.66 63.9232 4.58 62.3632C5.5 60.8032 6.82 59.1432 8.54 57.3832C10.02 55.8232 11.1 54.5032 11.78 53.4232C12.46 52.3432 12.8 51.0632 12.8 49.5832C12.8 47.8632 12.26 46.5032 11.18 45.5032C10.1 44.5032 8.42 44.0032 6.14 44.0032H0.5V40.0432H7.28C10.52 40.0432 13.06 40.8632 14.9 42.5032C16.74 44.1032 17.66 46.3032 17.66 49.1032C17.66 51.1832 17.24 52.9232 16.4 54.3232C15.56 55.7232 14.3 57.2832 12.62 59.0032C11.1 60.5632 9.94 61.9832 9.14 63.2632C8.38 64.5032 8 66.0232 8 67.8232V71.6032H3.2V68.1232ZM3.2 82.0432V76.6432H8V82.0432H3.2Z"/>
</mask>
<path d="M3.2 68.1232C3.2 65.8432 3.66 63.9232 4.58 62.3632C5.5 60.8032 6.82 59.1432 8.54 57.3832C10.02 55.8232 11.1 54.5032 11.78 53.4232C12.46 52.3432 12.8 51.0632 12.8 49.5832C12.8 47.8632 12.26 46.5032 11.18 45.5032C10.1 44.5032 8.42 44.0032 6.14 44.0032H0.5V40.0432H7.28C10.52 40.0432 13.06 40.8632 14.9 42.5032C16.74 44.1032 17.66 46.3032 17.66 49.1032C17.66 51.1832 17.24 52.9232 16.4 54.3232C15.56 55.7232 14.3 57.2832 12.62 59.0032C11.1 60.5632 9.94 61.9832 9.14 63.2632C8.38 64.5032 8 66.0232 8 67.8232V71.6032H3.2V68.1232ZM3.2 82.0432V76.6432H8V82.0432H3.2Z" fill="url(#paint0_linear_0_1)" fill-opacity="0.1"/>
<path d="M8.54 57.3832L8.89763 57.7327L8.90273 57.7273L8.54 57.3832ZM11.78 53.4232L12.2031 53.6896L11.78 53.4232ZM11.18 45.5032L10.8403 45.8701L11.18 45.5032ZM0.5 44.0032H0V44.5032H0.5V44.0032ZM0.5 40.0432V39.5432H0V40.0432H0.5ZM14.9 42.5032L14.5673 42.8765L14.5719 42.8805L14.9 42.5032ZM12.62 59.0032L12.2623 58.6538L12.2619 58.6543L12.62 59.0032ZM9.14 63.2632L8.71599 62.9982L8.7137 63.0019L9.14 63.2632ZM8 71.6032V72.1032H8.5V71.6032H8ZM3.2 71.6032H2.7V72.1032H3.2V71.6032ZM3.2 82.0432H2.7V82.5432H3.2V82.0432ZM3.2 76.6432V76.1432H2.7V76.6432H3.2ZM8 76.6432H8.5V76.1432H8V76.6432ZM8 82.0432V82.5432H8.5V82.0432H8ZM3.2 68.1232H3.7C3.7 65.9097 4.14641 64.0827 5.01068 62.6172L4.58 62.3632L4.14932 62.1092C3.17359 63.7637 2.7 65.7767 2.7 68.1232H3.2ZM4.58 62.3632L5.01068 62.6172C5.90444 61.1017 7.19641 59.4734 8.89759 57.7327L8.54 57.3832L8.18241 57.0337C6.44359 58.813 5.09556 60.5047 4.14932 62.1092L4.58 62.3632ZM8.54 57.3832L8.90273 57.7273C10.3923 56.1573 11.4977 54.8099 12.2031 53.6896L11.78 53.4232L11.3569 53.1568C10.7023 54.1965 9.64775 55.4891 8.17727 57.0391L8.54 57.3832ZM11.78 53.4232L12.2031 53.6896C12.9409 52.5178 13.3 51.1421 13.3 49.5832H12.8H12.3C12.3 50.9843 11.9791 52.1686 11.3569 53.1568L11.78 53.4232ZM12.8 49.5832H13.3C13.3 47.7496 12.7193 46.2471 11.5197 45.1363L11.18 45.5032L10.8403 45.8701C11.8007 46.7593 12.3 47.9768 12.3 49.5832H12.8ZM11.18 45.5032L11.5197 45.1363C10.3078 44.0142 8.47926 43.5032 6.14 43.5032V44.0032V44.5032C8.36074 44.5032 9.89216 44.9922 10.8403 45.8701L11.18 45.5032ZM6.14 44.0032V43.5032H0.5V44.0032V44.5032H6.14V44.0032ZM0.5 44.0032H1V40.0432H0.5H0V44.0032H0.5ZM0.5 40.0432V40.5432H7.28V40.0432V39.5432H0.5V40.0432ZM7.28 40.0432V40.5432C10.4367 40.5432 12.8446 41.341 14.5673 42.8765L14.9 42.5032L15.2327 42.13C13.2754 40.3854 10.6033 39.5432 7.28 39.5432V40.0432ZM14.9 42.5032L14.5719 42.8805C16.2859 44.371 17.16 46.4241 17.16 49.1032H17.66H18.16C18.16 46.1823 17.1941 43.8355 15.2281 42.1259L14.9 42.5032ZM17.66 49.1032H17.16C17.16 51.1171 16.7535 52.7623 15.9713 54.066L16.4 54.3232L16.8287 54.5805C17.7265 53.0842 18.16 51.2494 18.16 49.1032H17.66ZM16.4 54.3232L15.9713 54.066C15.1583 55.4209 13.9266 56.9499 12.2623 58.6538L12.62 59.0032L12.9777 59.3526C14.6734 57.6165 15.9617 56.0255 16.8287 54.5805L16.4 54.3232ZM12.62 59.0032L12.2619 58.6543C10.7269 60.2296 9.54119 61.6779 8.716 62.9982L9.14 63.2632L9.564 63.5282C10.3388 62.2885 11.4731 60.8968 12.9781 59.3521L12.62 59.0032ZM9.14 63.2632L8.7137 63.0019C7.89524 64.3373 7.5 65.9528 7.5 67.8232H8H8.5C8.5 66.0936 8.86476 64.6691 9.5663 63.5245L9.14 63.2632ZM8 67.8232H7.5V71.6032H8H8.5V67.8232H8ZM8 71.6032V71.1032H3.2V71.6032V72.1032H8V71.6032ZM3.2 71.6032H3.7V68.1232H3.2H2.7V71.6032H3.2ZM3.2 82.0432H3.7V76.6432H3.2H2.7V82.0432H3.2ZM3.2 76.6432V77.1432H8V76.6432V76.1432H3.2V76.6432ZM8 76.6432H7.5V82.0432H8H8.5V76.6432H8ZM8 82.0432V81.5432H3.2V82.0432V82.5432H8V82.0432Z" fill="url(#paint1_linear_0_1)" fill-opacity="0.38" mask="url(#path-1-outside-1_0_1)"/>
<mask id="path-3-outside-2_0_1" maskUnits="userSpaceOnUse" x="16.7046" y="18.2207" width="29" height="69" fill="black">
<rect fill="white" x="16.7046" y="18.2207" width="29" height="69"/>
<path d="M22.0246 63.9487C22.0246 60.3007 22.7606 57.2287 24.2326 54.7327C25.7046 52.2367 27.8166 49.5807 30.5686 46.7647C32.9366 44.2687 34.6646 42.1567 35.7526 40.4287C36.8406 38.7007 37.3846 36.6527 37.3846 34.2847C37.3846 31.5327 36.5206 29.3567 34.7926 27.7567C33.0646 26.1567 30.3766 25.3567 26.7286 25.3567H17.7046V19.0207H28.5526C33.7366 19.0207 37.8006 20.3327 40.7446 22.9567C43.6886 25.5167 45.1606 29.0367 45.1606 33.5167C45.1606 36.8447 44.4886 39.6287 43.1446 41.8687C41.8006 44.1087 39.7846 46.6047 37.0966 49.3567C34.6646 51.8527 32.8086 54.1247 31.5286 56.1727C30.3126 58.1567 29.7046 60.5887 29.7046 63.4687V69.5167H22.0246V63.9487ZM22.0246 86.2207V77.5807H29.7046V86.2207H22.0246Z"/>
</mask>
<path d="M22.0246 63.9487C22.0246 60.3007 22.7606 57.2287 24.2326 54.7327C25.7046 52.2367 27.8166 49.5807 30.5686 46.7647C32.9366 44.2687 34.6646 42.1567 35.7526 40.4287C36.8406 38.7007 37.3846 36.6527 37.3846 34.2847C37.3846 31.5327 36.5206 29.3567 34.7926 27.7567C33.0646 26.1567 30.3766 25.3567 26.7286 25.3567H17.7046V19.0207H28.5526C33.7366 19.0207 37.8006 20.3327 40.7446 22.9567C43.6886 25.5167 45.1606 29.0367 45.1606 33.5167C45.1606 36.8447 44.4886 39.6287 43.1446 41.8687C41.8006 44.1087 39.7846 46.6047 37.0966 49.3567C34.6646 51.8527 32.8086 54.1247 31.5286 56.1727C30.3126 58.1567 29.7046 60.5887 29.7046 63.4687V69.5167H22.0246V63.9487ZM22.0246 86.2207V77.5807H29.7046V86.2207H22.0246Z" fill="url(#paint2_linear_0_1)" fill-opacity="0.1"/>
<path d="M30.5686 46.7647L30.9262 47.1142L30.9313 47.1088L30.5686 46.7647ZM35.7526 40.4287L36.1757 40.6951L35.7526 40.4287ZM34.7926 27.7567L34.4529 28.1236L34.7926 27.7567ZM17.7046 25.3567H17.2046V25.8567H17.7046V25.3567ZM17.7046 19.0207V18.5207H17.2046V19.0207H17.7046ZM40.7446 22.9567L40.4119 23.33L40.4165 23.334L40.7446 22.9567ZM37.0966 49.3567L36.7389 49.0073L36.7385 49.0078L37.0966 49.3567ZM31.5286 56.1727L31.1046 55.9077L31.1023 55.9114L31.5286 56.1727ZM29.7046 69.5167V70.0167H30.2046V69.5167H29.7046ZM22.0246 69.5167H21.5246V70.0167H22.0246V69.5167ZM22.0246 86.2207H21.5246V86.7207H22.0246V86.2207ZM22.0246 77.5807V77.0807H21.5246V77.5807H22.0246ZM29.7046 77.5807H30.2046V77.0807H29.7046V77.5807ZM29.7046 86.2207V86.7207H30.2046V86.2207H29.7046ZM22.0246 63.9487H22.5246C22.5246 60.3672 23.247 57.3882 24.6633 54.9867L24.2326 54.7327L23.8019 54.4787C22.2742 57.0692 21.5246 60.2342 21.5246 63.9487H22.0246ZM24.2326 54.7327L24.6633 54.9867C26.109 52.5352 28.193 49.9109 30.9262 47.1142L30.5686 46.7647L30.211 46.4152C27.4402 49.2505 25.3001 51.9382 23.8019 54.4787L24.2326 54.7327ZM30.5686 46.7647L30.9313 47.1088C33.3088 44.6028 35.0623 42.4634 36.1757 40.6951L35.7526 40.4287L35.3295 40.1623C34.2669 41.85 32.5643 43.9346 30.2059 46.4206L30.5686 46.7647ZM35.7526 40.4287L36.1757 40.6951C37.3215 38.8753 37.8846 36.7316 37.8846 34.2847H37.3846H36.8846C36.8846 36.5738 36.3596 38.5261 35.3295 40.1623L35.7526 40.4287ZM37.3846 34.2847H37.8846C37.8846 31.4191 36.9799 29.1006 35.1323 27.3898L34.7926 27.7567L34.4529 28.1236C36.0613 29.6128 36.8846 31.6463 36.8846 34.2847H37.3846ZM34.7926 27.7567L35.1323 27.3898C33.2724 25.6677 30.4359 24.8567 26.7286 24.8567V25.3567V25.8567C30.3173 25.8567 32.8568 26.6457 34.4529 28.1236L34.7926 27.7567ZM26.7286 25.3567V24.8567H17.7046V25.3567V25.8567H26.7286V25.3567ZM17.7046 25.3567H18.2046V19.0207H17.7046H17.2046V25.3567H17.7046ZM17.7046 19.0207V19.5207H28.5526V19.0207V18.5207H17.7046V19.0207ZM28.5526 19.0207V19.5207C33.6533 19.5207 37.5852 20.8105 40.4119 23.33L40.7446 22.9567L41.0773 22.5834C38.016 19.8549 33.8199 18.5207 28.5526 18.5207V19.0207ZM40.7446 22.9567L40.4165 23.334C43.2345 25.7844 44.6606 29.1576 44.6606 33.5167H45.1606H45.6606C45.6606 28.9158 44.1427 25.249 41.0727 22.5794L40.7446 22.9567ZM45.1606 33.5167H44.6606C44.6606 36.7785 44.0021 39.4678 42.7158 41.6115L43.1446 41.8687L43.5733 42.1259C44.9751 39.7896 45.6606 36.9109 45.6606 33.5167H45.1606ZM43.1446 41.8687L42.7158 41.6115C41.3989 43.8064 39.4112 46.2714 36.7389 49.0073L37.0966 49.3567L37.4543 49.7061C40.158 46.938 42.2023 44.411 43.5733 42.1259L43.1446 41.8687ZM37.0966 49.3567L36.7385 49.0078C34.2915 51.5191 32.4098 53.8194 31.1046 55.9077L31.5286 56.1727L31.9526 56.4377C33.2074 54.43 35.0377 52.1863 37.4547 49.7056L37.0966 49.3567ZM31.5286 56.1727L31.1023 55.9114C29.8278 57.9908 29.2046 60.5183 29.2046 63.4687H29.7046H30.2046C30.2046 60.6591 30.7973 58.3226 31.9549 56.434L31.5286 56.1727ZM29.7046 63.4687H29.2046V69.5167H29.7046H30.2046V63.4687H29.7046ZM29.7046 69.5167V69.0167H22.0246V69.5167V70.0167H29.7046V69.5167ZM22.0246 69.5167H22.5246V63.9487H22.0246H21.5246V69.5167H22.0246ZM22.0246 86.2207H22.5246V77.5807H22.0246H21.5246V86.2207H22.0246ZM22.0246 77.5807V78.0807H29.7046V77.5807V77.0807H22.0246V77.5807ZM29.7046 77.5807H29.2046V86.2207H29.7046H30.2046V77.5807H29.7046ZM29.7046 86.2207V85.7207H22.0246V86.2207V86.7207H29.7046V86.2207Z" fill="url(#paint3_linear_0_1)" fill-opacity="0.38" mask="url(#path-3-outside-2_0_1)"/>
<mask id="path-5-outside-3_0_1" maskUnits="userSpaceOnUse" x="43.8906" y="-0.899902" width="39" height="92" fill="black">
<rect fill="white" x="43.8906" y="-0.899902" width="39" height="92"/>
<path d="M50.6506 60.4041C50.6506 55.5401 51.632 51.4441 53.5946 48.1161C55.5573 44.7881 58.3733 41.2468 62.0426 37.4921C65.2 34.1641 67.504 31.3481 68.9546 29.0441C70.4053 26.7401 71.1306 24.0094 71.1306 20.8521C71.1306 17.1828 69.9786 14.2814 67.6746 12.1481C65.3706 10.0148 61.7866 8.9481 56.9226 8.9481H44.8906V0.500092H59.3546C66.2666 0.500092 71.6853 2.24943 75.6106 5.74809C79.536 9.16143 81.4986 13.8548 81.4986 19.8281C81.4986 24.2654 80.6026 27.9774 78.8106 30.9641C77.0186 33.9508 74.3306 37.2788 70.7466 40.9481C67.504 44.2761 65.0293 47.3054 63.3226 50.0361C61.7013 52.6814 60.8906 55.9241 60.8906 59.7641V67.8281H50.6506V60.4041ZM50.6506 90.1001V78.5801H60.8906V90.1001H50.6506Z"/>
</mask>
<path d="M50.6506 60.4041C50.6506 55.5401 51.632 51.4441 53.5946 48.1161C55.5573 44.7881 58.3733 41.2468 62.0426 37.4921C65.2 34.1641 67.504 31.3481 68.9546 29.0441C70.4053 26.7401 71.1306 24.0094 71.1306 20.8521C71.1306 17.1828 69.9786 14.2814 67.6746 12.1481C65.3706 10.0148 61.7866 8.9481 56.9226 8.9481H44.8906V0.500092H59.3546C66.2666 0.500092 71.6853 2.24943 75.6106 5.74809C79.536 9.16143 81.4986 13.8548 81.4986 19.8281C81.4986 24.2654 80.6026 27.9774 78.8106 30.9641C77.0186 33.9508 74.3306 37.2788 70.7466 40.9481C67.504 44.2761 65.0293 47.3054 63.3226 50.0361C61.7013 52.6814 60.8906 55.9241 60.8906 59.7641V67.8281H50.6506V60.4041ZM50.6506 90.1001V78.5801H60.8906V90.1001H50.6506Z" fill="url(#paint4_linear_0_1)" fill-opacity="0.1"/>
<path d="M62.0426 37.4921L62.4003 37.8416L62.4054 37.8362L62.0426 37.4921ZM68.9546 29.0441L69.3777 29.3105L68.9546 29.0441ZM67.6746 12.1481L67.3349 12.515V12.515L67.6746 12.1481ZM44.8906 8.9481H44.3906V9.4481H44.8906V8.9481ZM44.8906 0.500092V9.15527e-05H44.3906V0.500092H44.8906ZM75.6106 5.74809L75.2779 6.12138L75.2825 6.12539L75.6106 5.74809ZM70.7466 40.9481L70.3889 40.5987L70.3885 40.5992L70.7466 40.9481ZM63.3226 50.0361L62.8986 49.7711L62.8963 49.7748L63.3226 50.0361ZM60.8906 67.8281V68.3281H61.3906V67.8281H60.8906ZM50.6506 67.8281H50.1506V68.3281H50.6506V67.8281ZM50.6506 90.1001H50.1506V90.6001H50.6506V90.1001ZM50.6506 78.5801V78.0801H50.1506V78.5801H50.6506ZM60.8906 78.5801H61.3906V78.0801H60.8906V78.5801ZM60.8906 90.1001V90.6001H61.3906V90.1001H60.8906ZM50.6506 60.4041H51.1506C51.1506 55.6066 52.1184 51.6036 54.0253 48.3701L53.5946 48.1161L53.1639 47.8621C51.1455 51.2846 50.1506 55.4736 50.1506 60.4041H50.6506ZM53.5946 48.1161L54.0253 48.3701C55.9617 45.0866 58.7497 41.577 62.4002 37.8416L62.0426 37.4921L61.685 37.1426C57.9969 40.9165 55.1528 44.4896 53.1639 47.8621L53.5946 48.1161ZM62.0426 37.4921L62.4054 37.8362C65.5722 34.4982 67.9017 31.6548 69.3777 29.3105L68.9546 29.0441L68.5315 28.7777C67.1062 31.0414 64.8277 33.83 61.6799 37.148L62.0426 37.4921ZM68.9546 29.0441L69.3777 29.3105C70.8862 26.9147 71.6306 24.0884 71.6306 20.8521H71.1306H70.6306C70.6306 23.9305 69.9244 26.5655 68.5315 28.7777L68.9546 29.0441ZM71.1306 20.8521H71.6306C71.6306 17.0691 70.4379 14.0253 68.0143 11.7812L67.6746 12.1481L67.3349 12.515C69.5193 14.5376 70.6306 17.2964 70.6306 20.8521H71.1306ZM67.6746 12.1481L68.0143 11.7812C65.5785 9.52579 61.8459 8.4481 56.9226 8.4481V8.9481V9.4481C61.7274 9.4481 65.1628 10.5037 67.3349 12.515L67.6746 12.1481ZM56.9226 8.9481V8.4481H44.8906V8.9481V9.4481H56.9226V8.9481ZM44.8906 8.9481H45.3906V0.500092H44.8906H44.3906V8.9481H44.8906ZM44.8906 0.500092V1.00009H59.3546V0.500092V9.15527e-05H44.8906V0.500092ZM59.3546 0.500092V1.00009C66.1833 1.00009 71.4699 2.72719 75.2779 6.12135L75.6106 5.74809L75.9433 5.37484C71.9007 1.77166 66.3499 9.15527e-05 59.3546 9.15527e-05V0.500092ZM75.6106 5.74809L75.2825 6.12539C79.0819 9.42918 80.9986 13.9757 80.9986 19.8281H81.4986H81.9986C81.9986 13.7339 79.99 8.89368 75.9387 5.37079L75.6106 5.74809ZM81.4986 19.8281H80.9986C80.9986 24.1993 80.1161 27.8165 78.3819 30.7068L78.8106 30.9641L79.2394 31.2213C81.0892 28.1384 81.9986 24.3316 81.9986 19.8281H81.4986ZM78.8106 30.9641L78.3819 30.7068C76.6169 33.6485 73.9573 36.9455 70.3889 40.5987L70.7466 40.9481L71.1043 41.2975C74.704 37.6121 77.4204 34.253 79.2394 31.2213L78.8106 30.9641ZM70.7466 40.9481L70.3885 40.5992C67.1309 43.9425 64.6305 47.0001 62.8986 49.7711L63.3226 50.0361L63.7466 50.3011C65.4281 47.6107 67.877 44.6097 71.1047 41.297L70.7466 40.9481ZM63.3226 50.0361L62.8963 49.7748C61.2165 52.5155 60.3906 55.8537 60.3906 59.7641H60.8906H61.3906C61.3906 55.9945 62.1861 52.8473 63.7489 50.2974L63.3226 50.0361ZM60.8906 59.7641H60.3906V67.8281H60.8906H61.3906V59.7641H60.8906ZM60.8906 67.8281V67.3281H50.6506V67.8281V68.3281H60.8906V67.8281ZM50.6506 67.8281H51.1506V60.4041H50.6506H50.1506V67.8281H50.6506ZM50.6506 90.1001H51.1506V78.5801H50.6506H50.1506V90.1001H50.6506ZM50.6506 78.5801V79.0801H60.8906V78.5801V78.0801H50.6506V78.5801ZM60.8906 78.5801H60.3906V90.1001H60.8906H61.3906V78.5801H60.8906ZM60.8906 90.1001V89.6001H50.6506V90.1001V90.6001H60.8906V90.1001Z" fill="url(#paint5_linear_0_1)" fill-opacity="0.38" mask="url(#path-5-outside-3_0_1)"/>
<defs>
<linearGradient id="paint0_linear_0_1" x1="18.7851" y1="53.6608" x2="-3.46936" y2="56.6419" gradientUnits="userSpaceOnUse">
<stop stop-color="#D9D9D9" stop-opacity="0.49"/>
<stop offset="1" stop-color="#737373" stop-opacity="0"/>
</linearGradient>
<linearGradient id="paint1_linear_0_1" x1="8.5" y1="28.0432" x2="8.5" y2="94.0432" gradientUnits="userSpaceOnUse">
<stop stop-color="white"/>
<stop offset="1" stop-color="#999999" stop-opacity="0"/>
</linearGradient>
<linearGradient id="paint2_linear_0_1" x1="47.2934" y1="40.9759" x2="11.4168" y2="45.8482" gradientUnits="userSpaceOnUse">
<stop stop-color="#D9D9D9" stop-opacity="0.49"/>
<stop offset="1" stop-color="#737373" stop-opacity="0"/>
</linearGradient>
<linearGradient id="paint3_linear_0_1" x1="30.7046" y1="0.220703" x2="30.7046" y2="105.221" gradientUnits="userSpaceOnUse">
<stop stop-color="white"/>
<stop offset="1" stop-color="#999999" stop-opacity="0"/>
</linearGradient>
<linearGradient id="paint4_linear_0_1" x1="84.6197" y1="30.4404" x2="36.5537" y2="37.0007" gradientUnits="userSpaceOnUse">
<stop stop-color="#D9D9D9" stop-opacity="0.49"/>
<stop offset="1" stop-color="#737373" stop-opacity="0"/>
</linearGradient>
<linearGradient id="paint5_linear_0_1" x1="62.3906" y1="-23.8999" x2="62.3906" y2="116.1" gradientUnits="userSpaceOnUse">
<stop stop-color="white"/>
<stop offset="1" stop-color="#999999" stop-opacity="0"/>
</linearGradient>
</defs>
</svg>
